<svg width="48" height="48" viewBox="0 0 48 48" fill="none" xmlns="http://www.w3.org/2000/svg">
<circle cx="24" cy="24" r="24" fill="#F2F2F2"/>
<g clip-path="url(#clip0_1_58)">
<path d="M27.3 17.5501C26.54 17.55 25.8103 17.8482 25.2679 18.3807C24.7255 18.9131 24.4139 19.6372 24.4 20.3971L24.372 21.9721C24.3704 22.0567 24.3509 22.1399 24.3148 22.2164C24.2787 22.2929 24.2269 22.3609 24.1626 22.416C24.0984 22.471 24.0233 22.5119 23.9422 22.5359C23.8611 22.5599 23.7758 22.5664 23.692 22.5551L22.131 22.3431C20.077 22.0631 18.109 21.1171 16.221 19.5441C15.623 22.8541 16.791 25.1471 19.604 26.9161L21.351 28.0141C21.434 28.0663 21.503 28.138 21.5518 28.223C21.6007 28.308 21.628 28.4036 21.6314 28.5016C21.6347 28.5996 21.614 28.6969 21.5711 28.785C21.5281 28.8731 21.4642 28.9494 21.385 29.0071L19.793 30.1701C20.74 30.2291 21.639 30.1871 22.385 30.0391C27.103 29.0971 30.24 25.5471 30.24 19.6911C30.24 19.2131 29.228 17.5501 27.3 17.5501ZM22.4 20.3601C22.4175 19.3962 22.7189 18.4588 23.2666 17.6653C23.8142 16.8719 24.5838 16.2576 25.4789 15.8995C26.374 15.5413 27.3549 15.4552 28.2987 15.6519C29.2426 15.8485 30.1074 16.3193 30.785 17.0051C31.496 17.0001 32.101 17.1801 33.454 16.3601C33.119 18.0001 32.954 18.7121 32.24 19.6911C32.24 27.3331 27.543 31.0491 22.777 32.0001C19.509 32.6521 14.757 31.5811 13.395 30.1591C14.089 30.1051 16.909 29.8021 18.539 28.6091C17.16 27.7001 11.671 24.4701 15.278 15.7861C16.971 17.7631 18.688 19.1091 20.428 19.8231C21.586 20.2981 21.87 20.2881 22.401 20.3611L22.4 20.3601Z" fill="#121212"/>
</g>
<defs>
<clipPath id="clip0_1_58">
<rect width="24" height="24" fill="white" transform="translate(12 12)"/>
</clipPath>
</defs>
</svg>
