<svg xmlns="http://www.w3.org/2000/svg" width="161" height="185" fill="none" xmlns:v="https://vecta.io/nano"><mask id="A" maskUnits="userSpaceOnUse" x="0" y="1" width="159" height="181" mask-type="alpha"><path d="M72.018 1.285a39.25 39.25 0 0 0-7.258 1.127l-6.487 1.779c-20.164 5.24-35.563 16.908-46.497 34.693C1.899 54.945-1.456 72.35.561 90.916c1.752 16.123 8.986 29.799 19.279 41.982 9.153 10.835 19.941 19.804 31.768 27.593 12.268 8.079 25.333 14.399 39.343 18.777 3.459 1.08 7.013 1.735 10.561 2.412.759.145 1.585.284 2.108-.493.43-.637.261-1.295-.025-1.902-.307-.649-.738-1.232-1.196-1.786-2.353-2.842-4.072-6.049-5.519-9.423-1.704-3.978-1.093-8.364 4.529-9.828 14.662-3.819 26.811-11.924 36.748-23.257 14.3-16.31 20.983-35.499 19.851-57.126-1.201-22.916-10.483-42.224-27.807-57.319C115.076 7.368 97.499 1.102 77.894 1.102c-1.94 0-3.897.062-5.876.183z" fill="#fff"/></mask><g mask="url(#A)"><path d="M163.627-4.408l-.003 80.968-22.649-.171-.231-.001c-5.356 0-10.614 1.453-15.219 4.208l-5.527 3.31-5.76-6.505c-.464-.521-.983-.995-1.547-1.41-2.132-1.568-4.745-2.209-7.356-1.805a9.83 9.83 0 0 0-6.476 3.939l-3.613 4.938-4.875-17.843c-.855-3.136-3.349-5.538-6.513-6.269a8.73 8.73 0 0 0-6.639 1.121c-1.992 1.25-3.378 3.203-3.904 5.498l-4.397 19.168-2.707-12.174a9.92 9.92 0 0 0-6.81-7.338c-2.534-.764-5.21-.493-7.536.764a9.85 9.85 0 0 0-4.789 5.881l-3.226 10.764-2.141-6.49c-1.345-4.07-5.119-6.803-9.395-6.803h-5.924c-3.036 0-5.497 2.467-5.497 5.511s2.462 5.511 5.497 5.511h5.129l6.27 19.003c1.144 3.458 4.883 5.345 8.338 4.198a6.61 6.61 0 0 0 4.243-4.375l6.026-20.107 6.018 27.057a6.57 6.57 0 0 0 2.902 4.143c1.07.682 2.286 1.032 3.525 1.032a6.63 6.63 0 0 0 1.45-.16c2.461-.551 4.42-2.499 4.992-4.972l6.793-29.609 3.772 13.803c.619 2.271 2.086 4.165 4.126 5.332s4.412 1.464 6.679.844a8.83 8.83 0 0 0 4.771-3.29l5.5-7.518 4.855 5.481c3.504 3.951 9.329 4.853 13.858 2.144l5.528-3.309a18.53 18.53 0 0 1 9.728-2.648l22.734.171.003 99.723H-5.498V-4.408h169.125z" fill="#ebebeb"/></g></svg>