<svg width="551" height="453" viewBox="0 0 551 453" fill="none" xmlns="http://www.w3.org/2000/svg">
<g clip-path="url(#clip0_1_271)">
<mask id="mask0_1_271" style="mask-type:alpha" maskUnits="userSpaceOnUse" x="57" y="-121" width="459" height="530">
<path d="M314.701 -119.644C307.684 -120.689 300.572 -121.104 293.476 -120.826C286.997 -120.573 280.522 -120.05 274.043 -119.706C213.811 -117.041 163.215 -93.3584 121.588 -49.7201C83.9904 -10.3156 64.0517 36.8116 58.6244 90.4432C53.9118 137.02 66.1912 179.986 88.0237 220.575C107.44 256.673 132.601 288.486 161.415 317.591C191.303 347.78 224.5 373.485 261.539 394.272C270.685 399.402 280.353 403.388 289.995 407.437C292.056 408.301 294.311 409.19 296.259 407.311C297.858 405.771 297.773 403.811 297.328 401.928C296.848 399.91 295.978 398.005 295.012 396.164C290.056 386.723 287.113 376.637 285.041 366.238C282.602 353.983 286.964 341.965 303.758 341.214C347.56 339.251 386.817 323.674 421.751 297.653C472.022 260.203 502.452 210.045 512.219 148.301C522.566 82.8746 507.868 22.7784 467.876 -30.2646C432.959 -76.5703 386.954 -104.834 331.447 -116.626C325.955 -117.793 320.377 -118.796 314.701 -119.644Z" fill="white"/>
</mask>
<g mask="url(#mask0_1_271)">
<path d="M577.481 -80.6163L528.903 147.992L464.881 133.885L464.228 133.743C449.065 130.521 433.307 131.46 418.617 136.47L400.983 142.49L388.576 120.659C387.575 118.908 386.39 117.258 385.042 115.749C379.947 110.038 372.934 106.659 365.299 106.227C357.661 105.794 350.309 108.36 344.601 113.453L331.41 125.221L328.31 71.9079C327.769 62.5403 322.151 54.2565 313.63 50.29C307.463 47.4318 300.552 47.1279 294.161 49.4614C287.771 51.7918 282.677 56.4727 279.81 62.6347L255.863 114.111L255.501 78.1093C255.392 67.7666 249.689 58.2551 240.621 53.2943C233.904 49.6134 226.168 48.7698 218.827 50.9178C211.484 53.0621 205.416 57.9328 201.739 64.6416L186.149 93.0944L183.981 73.4812C182.615 61.1804 173.568 51.1926 161.462 48.6206L144.689 45.0572C136.094 43.2311 127.645 48.7146 125.819 57.3095C123.993 65.9043 129.483 74.3494 138.078 76.1754L152.6 79.2606L158.951 136.686C160.115 147.135 169.57 154.712 180.038 153.554C186.219 152.87 191.693 149.2 194.676 143.752L223.8 90.6049L224.606 170.62C224.659 175.717 226.69 180.491 230.336 184.062C232.956 186.632 236.189 188.353 239.697 189.099C241.06 189.388 242.471 189.532 243.899 189.517C251.197 189.441 257.912 185.121 261.015 178.482L298.007 98.9684L300.408 140.21C300.798 146.996 303.815 153.224 308.893 157.747C313.971 162.264 320.507 164.534 327.294 164.148C333.006 163.82 338.504 161.537 342.775 157.729L362.855 139.811L373.314 158.207C380.865 171.47 396.817 177.52 411.264 172.595L428.898 166.578C438.278 163.377 448.192 162.79 458.03 164.952L522.291 179.11L462.481 460.676L-16.3478 358.947L98.6519 -182.345L577.481 -80.6163Z" fill="#EBEBEB"/>
</g>
</g>
<defs>
<clipPath id="clip0_1_271">
<rect width="466" height="534" fill="white" transform="translate(111.574 -166.592) rotate(11.9944)"/>
</clipPath>
</defs>
</svg>
