<svg xmlns="http://www.w3.org/2000/svg" width="549" height="442" fill="none" xmlns:v="https://vecta.io/nano"><mask id="A" maskUnits="userSpaceOnUse" x="55" y="-121" width="459" height="530" mask-type="alpha"><path d="M312.701-119.644c-7.017-1.045-14.129-1.46-21.225-1.182-6.479.253-12.954.776-19.433 1.12-60.232 2.665-110.828 26.348-152.455 69.986C81.99-10.316 62.052 36.812 56.624 90.443c-4.713 46.577 7.567 89.543 29.399 130.132 19.416 36.098 44.577 67.911 73.391 97.016 29.888 30.189 63.085 55.894 100.124 76.681 9.146 5.13 18.814 9.116 28.456 13.165 2.061.864 4.316 1.753 6.264-.126 1.599-1.54 1.514-3.5 1.069-5.383-.48-2.018-1.35-3.923-2.316-5.764-4.956-9.441-7.899-19.527-9.971-29.926-2.439-12.255 1.923-24.273 18.717-25.024 43.802-1.963 83.059-17.54 117.993-43.561 50.271-37.45 80.701-87.608 90.468-149.352 10.347-65.426-4.351-125.523-44.343-178.566-34.917-46.306-80.922-74.569-136.429-86.361a278.53 278.53 0 0 0-16.746-3.018z" fill="#fff"/></mask><g mask="url(#A)"><path d="M575.481-80.616l-48.578 228.608-64.022-14.107-.653-.142c-15.163-3.222-30.921-2.283-45.611 2.727l-17.634 6.02-12.407-21.831a28.92 28.92 0 0 0-3.534-4.91c-5.095-5.711-12.108-9.09-19.743-9.522s-14.99 2.133-20.698 7.226l-13.191 11.768-3.1-53.313c-.541-9.368-6.159-17.651-14.68-21.618a25.33 25.33 0 0 0-19.469-.829c-6.39 2.33-11.484 7.011-14.351 13.173l-23.947 51.476-.362-36.002c-.109-10.343-5.812-19.854-14.88-24.815-6.717-3.681-14.453-4.525-21.794-2.376s-13.411 7.015-17.088 13.724l-15.59 28.453-2.168-19.613a28.6 28.6 0 0 0-22.519-24.861l-16.773-3.563c-8.595-1.826-17.044 3.657-18.87 12.252s3.664 17.04 12.259 18.866l14.522 3.085 6.351 57.425c1.164 10.449 10.619 18.026 21.087 16.868 6.181-.684 11.655-4.354 14.638-9.802L221.8 90.605l.806 80.015c.053 5.097 2.084 9.871 5.73 13.442a18.96 18.96 0 0 0 9.361 5.037c1.363.289 2.774.433 4.202.418 7.298-.076 14.013-4.396 17.116-11.035l36.992-79.514 2.401 41.242c.39 6.786 3.407 13.014 8.485 17.537a25.34 25.34 0 0 0 18.401 6.401c5.712-.328 11.21-2.611 15.481-6.419l20.08-17.918 10.459 18.396a31.88 31.88 0 0 0 37.95 14.388l17.634-6.017c9.38-3.201 19.294-3.788 29.132-1.626l64.261 14.158-59.81 281.566-478.829-101.729 115-541.292L575.481-80.616z" fill="#ebebeb"/></g></svg>