<svg width="64" height="64" viewBox="0 0 64 64" fill="none" xmlns="http://www.w3.org/2000/svg">
<circle cx="32" cy="32" r="30.75" stroke="#FFBB62" stroke-width="2.5"/>
<g clip-path="url(#clip0_1_179)">
<path d="M33.74 46L32 45L36 38H42C42.5304 38 43.0391 37.7893 43.4142 37.4142C43.7893 37.0391 44 36.5304 44 36V24C44 23.4696 43.7893 22.9609 43.4142 22.5858C43.0391 22.2107 42.5304 22 42 22H22C21.4696 22 20.9609 22.2107 20.5858 22.5858C20.2107 22.9609 20 23.4696 20 24V36C20 36.5304 20.2107 37.0391 20.5858 37.4142C20.9609 37.7893 21.4696 38 22 38H31V40H22C20.9391 40 19.9217 39.5786 19.1716 38.8284C18.4214 38.0783 18 37.0609 18 36V24C18 22.9391 18.4214 21.9217 19.1716 21.1716C19.9217 20.4214 20.9391 20 22 20H42C43.0609 20 44.0783 20.4214 44.8284 21.1716C45.5786 21.9217 46 22.9391 46 24V36C46 37.0609 45.5786 38.0783 44.8284 38.8284C44.0783 39.5786 43.0609 40 42 40H37.16L33.74 46Z" fill="white"/>
<path d="M40 26H24V28H40V26Z" fill="white"/>
<path d="M34 32H24V34H34V32Z" fill="white"/>
</g>
<defs>
<clipPath id="clip0_1_179">
<rect width="32" height="32" fill="white" transform="translate(16 16)"/>
</clipPath>
</defs>
</svg>
