<svg width="305" height="105" viewBox="0 0 305 105" fill="none" xmlns="http://www.w3.org/2000/svg">
<path d="M0 15C0 6.71573 6.71573 0 15 0H290C298.284 0 305 6.71573 305 15V90C305 98.2843 298.284 105 290 105H0V15Z" fill="white"/>
<path d="M16.332 35V22.4H17.844V35H16.332ZM19.7776 26.414L20.8216 22.4H22.5136L20.8576 26.414H19.7776ZM24.2576 35V26.072H25.6256L25.7336 27.368C26.0216 26.888 26.4056 26.516 26.8856 26.252C27.3656 25.988 27.9056 25.856 28.5056 25.856C29.2136 25.856 29.8196 26 30.3236 26.288C30.8396 26.576 31.2356 27.014 31.5116 27.602C31.8236 27.062 32.2496 26.636 32.7896 26.324C33.3416 26.012 33.9356 25.856 34.5716 25.856C35.6396 25.856 36.4916 26.18 37.1276 26.828C37.7636 27.464 38.0816 28.448 38.0816 29.78V35H36.5876V29.942C36.5876 29.018 36.4016 28.322 36.0296 27.854C35.6576 27.386 35.1236 27.152 34.4276 27.152C33.7076 27.152 33.1076 27.434 32.6276 27.998C32.1596 28.55 31.9256 29.342 31.9256 30.374V35H30.4136V29.942C30.4136 29.018 30.2276 28.322 29.8556 27.854C29.4836 27.386 28.9496 27.152 28.2536 27.152C27.5456 27.152 26.9516 27.434 26.4716 27.998C26.0036 28.55 25.7696 29.342 25.7696 30.374V35H24.2576ZM45.1229 35V26.072H46.4909L46.5809 27.674C46.8689 27.11 47.2829 26.666 47.8229 26.342C48.3629 26.018 48.9749 25.856 49.6589 25.856C50.7149 25.856 51.5549 26.18 52.1789 26.828C52.8149 27.464 53.1329 28.448 53.1329 29.78V35H51.6209V29.942C51.6209 28.082 50.8529 27.152 49.3169 27.152C48.5489 27.152 47.9069 27.434 47.3909 27.998C46.8869 28.55 46.6349 29.342 46.6349 30.374V35H45.1229ZM59.4916 35.216C58.6516 35.216 57.8956 35.024 57.2236 34.64C56.5516 34.256 56.0176 33.716 55.6216 33.02C55.2376 32.312 55.0456 31.484 55.0456 30.536C55.0456 29.588 55.2436 28.766 55.6396 28.07C56.0356 27.362 56.5696 26.816 57.2416 26.432C57.9256 26.048 58.6876 25.856 59.5276 25.856C60.3676 25.856 61.1236 26.048 61.7956 26.432C62.4676 26.816 62.9956 27.362 63.3796 28.07C63.7756 28.766 63.9736 29.588 63.9736 30.536C63.9736 31.484 63.7756 32.312 63.3796 33.02C62.9836 33.716 62.4436 34.256 61.7596 34.64C61.0876 35.024 60.3316 35.216 59.4916 35.216ZM59.4916 33.92C60.0076 33.92 60.4876 33.794 60.9316 33.542C61.3756 33.29 61.7356 32.912 62.0116 32.408C62.2876 31.904 62.4256 31.28 62.4256 30.536C62.4256 29.792 62.2876 29.168 62.0116 28.664C61.7476 28.16 61.3936 27.782 60.9496 27.53C60.5056 27.278 60.0316 27.152 59.5276 27.152C59.0116 27.152 58.5316 27.278 58.0876 27.53C57.6436 27.782 57.2836 28.16 57.0076 28.664C56.7316 29.168 56.5936 29.792 56.5936 30.536C56.5936 31.28 56.7316 31.904 57.0076 32.408C57.2836 32.912 57.6376 33.29 58.0696 33.542C58.5136 33.794 58.9876 33.92 59.4916 33.92ZM69.2524 35C68.4364 35 67.7944 34.802 67.3264 34.406C66.8584 34.01 66.6244 33.296 66.6244 32.264V27.35H65.0764V26.072H66.6244L66.8224 23.93H68.1364V26.072H70.7644V27.35H68.1364V32.264C68.1364 32.828 68.2504 33.212 68.4784 33.416C68.7064 33.608 69.1084 33.704 69.6844 33.704H70.6204V35H69.2524ZM77.449 35V22.04H78.961V35H77.449ZM85.5073 35.216C84.6673 35.216 83.9113 35.024 83.2393 34.64C82.5673 34.256 82.0333 33.716 81.6373 33.02C81.2533 32.312 81.0613 31.484 81.0613 30.536C81.0613 29.588 81.2593 28.766 81.6553 28.07C82.0513 27.362 82.5853 26.816 83.2573 26.432C83.9413 26.048 84.7033 25.856 85.5433 25.856C86.3833 25.856 87.1393 26.048 87.8113 26.432C88.4833 26.816 89.0113 27.362 89.3953 28.07C89.7913 28.766 89.9893 29.588 89.9893 30.536C89.9893 31.484 89.7913 32.312 89.3953 33.02C88.9993 33.716 88.4593 34.256 87.7753 34.64C87.1033 35.024 86.3473 35.216 85.5073 35.216ZM85.5073 33.92C86.0233 33.92 86.5033 33.794 86.9473 33.542C87.3913 33.29 87.7513 32.912 88.0273 32.408C88.3033 31.904 88.4413 31.28 88.4413 30.536C88.4413 29.792 88.3033 29.168 88.0273 28.664C87.7633 28.16 87.4093 27.782 86.9653 27.53C86.5213 27.278 86.0473 27.152 85.5433 27.152C85.0273 27.152 84.5473 27.278 84.1033 27.53C83.6593 27.782 83.2993 28.16 83.0233 28.664C82.7473 29.168 82.6093 29.792 82.6093 30.536C82.6093 31.28 82.7473 31.904 83.0233 32.408C83.2993 32.912 83.6533 33.29 84.0853 33.542C84.5293 33.794 85.0033 33.92 85.5073 33.92ZM96.1596 35.216C95.3196 35.216 94.5636 35.024 93.8916 34.64C93.2196 34.256 92.6856 33.716 92.2896 33.02C91.9056 32.312 91.7136 31.484 91.7136 30.536C91.7136 29.588 91.9116 28.766 92.3076 28.07C92.7036 27.362 93.2376 26.816 93.9096 26.432C94.5936 26.048 95.3556 25.856 96.1956 25.856C97.0356 25.856 97.7916 26.048 98.4636 26.432C99.1356 26.816 99.6636 27.362 100.048 28.07C100.444 28.766 100.642 29.588 100.642 30.536C100.642 31.484 100.444 32.312 100.048 33.02C99.6516 33.716 99.1116 34.256 98.4276 34.64C97.7556 35.024 96.9996 35.216 96.1596 35.216ZM96.1596 33.92C96.6756 33.92 97.1556 33.794 97.5996 33.542C98.0436 33.29 98.4036 32.912 98.6796 32.408C98.9556 31.904 99.0936 31.28 99.0936 30.536C99.0936 29.792 98.9556 29.168 98.6796 28.664C98.4156 28.16 98.0616 27.782 97.6176 27.53C97.1736 27.278 96.6996 27.152 96.1956 27.152C95.6796 27.152 95.1996 27.278 94.7556 27.53C94.3116 27.782 93.9516 28.16 93.6756 28.664C93.3996 29.168 93.2616 29.792 93.2616 30.536C93.2616 31.28 93.3996 31.904 93.6756 32.408C93.9516 32.912 94.3056 33.29 94.7376 33.542C95.1816 33.794 95.6556 33.92 96.1596 33.92ZM102.744 35V22.04H104.256V29.834L107.91 26.072H109.764L105.804 30.104L110.268 35H108.342L104.256 30.374V35H102.744ZM112.732 24.092C112.432 24.092 112.18 23.996 111.976 23.804C111.784 23.6 111.688 23.348 111.688 23.048C111.688 22.76 111.784 22.52 111.976 22.328C112.18 22.136 112.432 22.04 112.732 22.04C113.02 22.04 113.266 22.136 113.47 22.328C113.674 22.52 113.776 22.76 113.776 23.048C113.776 23.348 113.674 23.6 113.47 23.804C113.266 23.996 113.02 24.092 112.732 24.092ZM111.976 35V26.072H113.488V35H111.976ZM116.121 35V26.072H117.489L117.579 27.674C117.867 27.11 118.281 26.666 118.821 26.342C119.361 26.018 119.973 25.856 120.657 25.856C121.713 25.856 122.553 26.18 123.177 26.828C123.813 27.464 124.131 28.448 124.131 29.78V35H122.619V29.942C122.619 28.082 121.851 27.152 120.315 27.152C119.547 27.152 118.905 27.434 118.389 27.998C117.885 28.55 117.633 29.342 117.633 30.374V35H116.121ZM129.95 32.192C129.446 32.192 128.984 32.126 128.564 31.994L127.664 32.84C127.796 32.936 127.958 33.02 128.15 33.092C128.354 33.152 128.642 33.212 129.014 33.272C129.386 33.32 129.908 33.374 130.58 33.434C131.78 33.518 132.638 33.794 133.154 34.262C133.67 34.73 133.928 35.342 133.928 36.098C133.928 36.614 133.784 37.106 133.496 37.574C133.22 38.042 132.788 38.426 132.2 38.726C131.624 39.026 130.88 39.176 129.968 39.176C129.164 39.176 128.45 39.068 127.826 38.852C127.202 38.648 126.716 38.33 126.368 37.898C126.02 37.478 125.846 36.944 125.846 36.296C125.846 35.96 125.936 35.594 126.116 35.198C126.296 34.814 126.632 34.448 127.124 34.1C126.86 33.992 126.632 33.878 126.44 33.758C126.26 33.626 126.092 33.482 125.936 33.326V32.912L127.466 31.4C126.758 30.8 126.404 30.008 126.404 29.024C126.404 28.436 126.542 27.902 126.818 27.422C127.094 26.942 127.496 26.564 128.024 26.288C128.552 26 129.194 25.856 129.95 25.856C130.466 25.856 130.934 25.928 131.354 26.072H134.648V27.206L132.974 27.278C133.322 27.782 133.496 28.364 133.496 29.024C133.496 29.612 133.352 30.146 133.064 30.626C132.788 31.106 132.386 31.49 131.858 31.778C131.342 32.054 130.706 32.192 129.95 32.192ZM129.95 30.95C130.586 30.95 131.09 30.788 131.462 30.464C131.846 30.128 132.038 29.648 132.038 29.024C132.038 28.412 131.846 27.944 131.462 27.62C131.09 27.284 130.586 27.116 129.95 27.116C129.302 27.116 128.786 27.284 128.402 27.62C128.03 27.944 127.844 28.412 127.844 29.024C127.844 29.648 128.03 30.128 128.402 30.464C128.786 30.788 129.302 30.95 129.95 30.95ZM127.322 36.152C127.322 36.752 127.574 37.196 128.078 37.484C128.582 37.784 129.212 37.934 129.968 37.934C130.712 37.934 131.306 37.772 131.75 37.448C132.206 37.124 132.434 36.692 132.434 36.152C132.434 35.768 132.278 35.432 131.966 35.144C131.654 34.868 131.078 34.706 130.238 34.658C129.578 34.61 129.008 34.55 128.528 34.478C128.036 34.742 127.712 35.024 127.556 35.324C127.4 35.636 127.322 35.912 127.322 36.152ZM144.645 35C143.829 35 143.187 34.802 142.719 34.406C142.251 34.01 142.017 33.296 142.017 32.264V27.35H140.469V26.072H142.017L142.215 23.93H143.529V26.072H146.157V27.35H143.529V32.264C143.529 32.828 143.643 33.212 143.871 33.416C144.099 33.608 144.501 33.704 145.077 33.704H146.013V35H144.645ZM151.9 35.216C151.06 35.216 150.304 35.024 149.632 34.64C148.96 34.256 148.426 33.716 148.03 33.02C147.646 32.312 147.454 31.484 147.454 30.536C147.454 29.588 147.652 28.766 148.048 28.07C148.444 27.362 148.978 26.816 149.65 26.432C150.334 26.048 151.096 25.856 151.936 25.856C152.776 25.856 153.532 26.048 154.204 26.432C154.876 26.816 155.404 27.362 155.788 28.07C156.184 28.766 156.382 29.588 156.382 30.536C156.382 31.484 156.184 32.312 155.788 33.02C155.392 33.716 154.852 34.256 154.168 34.64C153.496 35.024 152.74 35.216 151.9 35.216ZM151.9 33.92C152.416 33.92 152.896 33.794 153.34 33.542C153.784 33.29 154.144 32.912 154.42 32.408C154.696 31.904 154.834 31.28 154.834 30.536C154.834 29.792 154.696 29.168 154.42 28.664C154.156 28.16 153.802 27.782 153.358 27.53C152.914 27.278 152.44 27.152 151.936 27.152C151.42 27.152 150.94 27.278 150.496 27.53C150.052 27.782 149.692 28.16 149.416 28.664C149.14 29.168 149.002 29.792 149.002 30.536C149.002 31.28 149.14 31.904 149.416 32.408C149.692 32.912 150.046 33.29 150.478 33.542C150.922 33.794 151.396 33.92 151.9 33.92ZM163.248 35V22.04H164.76V27.602C165.06 27.05 165.486 26.624 166.038 26.324C166.59 26.012 167.19 25.856 167.838 25.856C168.87 25.856 169.698 26.18 170.322 26.828C170.946 27.464 171.258 28.448 171.258 29.78V35H169.764V29.942C169.764 28.082 169.014 27.152 167.514 27.152C166.734 27.152 166.08 27.434 165.552 27.998C165.024 28.55 164.76 29.342 164.76 30.374V35H163.248ZM174.467 24.092C174.167 24.092 173.915 23.996 173.711 23.804C173.519 23.6 173.423 23.348 173.423 23.048C173.423 22.76 173.519 22.52 173.711 22.328C173.915 22.136 174.167 22.04 174.467 22.04C174.755 22.04 175.001 22.136 175.205 22.328C175.409 22.52 175.511 22.76 175.511 23.048C175.511 23.348 175.409 23.6 175.205 23.804C175.001 23.996 174.755 24.092 174.467 24.092ZM173.711 35V26.072H175.223V35H173.711ZM177.855 35V26.072H179.223L179.349 27.782C179.625 27.194 180.045 26.726 180.609 26.378C181.173 26.03 181.869 25.856 182.697 25.856V27.44H182.283C181.755 27.44 181.269 27.536 180.825 27.728C180.381 27.908 180.027 28.22 179.763 28.664C179.499 29.108 179.367 29.72 179.367 30.5V35H177.855ZM188.074 35.216C187.222 35.216 186.466 35.024 185.806 34.64C185.146 34.244 184.624 33.698 184.24 33.002C183.868 32.306 183.682 31.484 183.682 30.536C183.682 29.6 183.868 28.784 184.24 28.088C184.612 27.38 185.128 26.834 185.788 26.45C186.46 26.054 187.234 25.856 188.11 25.856C188.974 25.856 189.718 26.054 190.342 26.45C190.978 26.834 191.464 27.344 191.8 27.98C192.136 28.616 192.304 29.3 192.304 30.032C192.304 30.164 192.298 30.296 192.286 30.428C192.286 30.56 192.286 30.71 192.286 30.878H185.176C185.212 31.562 185.368 32.132 185.644 32.588C185.932 33.032 186.286 33.368 186.706 33.596C187.138 33.824 187.594 33.938 188.074 33.938C188.698 33.938 189.22 33.794 189.64 33.506C190.06 33.218 190.366 32.828 190.558 32.336H192.052C191.812 33.164 191.35 33.854 190.666 34.406C189.994 34.946 189.13 35.216 188.074 35.216ZM188.074 27.134C187.354 27.134 186.712 27.356 186.148 27.8C185.596 28.232 185.278 28.868 185.194 29.708H190.81C190.774 28.904 190.498 28.274 189.982 27.818C189.466 27.362 188.83 27.134 188.074 27.134ZM202.042 35.216C201.298 35.216 200.68 35.09 200.188 34.838C199.696 34.586 199.33 34.25 199.09 33.83C198.85 33.41 198.73 32.954 198.73 32.462C198.73 31.55 199.078 30.848 199.774 30.356C200.47 29.864 201.418 29.618 202.618 29.618H205.03V29.51C205.03 28.73 204.826 28.142 204.418 27.746C204.01 27.338 203.464 27.134 202.78 27.134C202.192 27.134 201.682 27.284 201.25 27.584C200.83 27.872 200.566 28.298 200.458 28.862H198.91C198.97 28.214 199.186 27.668 199.558 27.224C199.942 26.78 200.416 26.444 200.98 26.216C201.544 25.976 202.144 25.856 202.78 25.856C204.028 25.856 204.964 26.192 205.588 26.864C206.224 27.524 206.542 28.406 206.542 29.51V35H205.192L205.102 33.398C204.85 33.902 204.478 34.334 203.986 34.694C203.506 35.042 202.858 35.216 202.042 35.216ZM202.276 33.938C202.852 33.938 203.344 33.788 203.752 33.488C204.172 33.188 204.49 32.798 204.706 32.318C204.922 31.838 205.03 31.334 205.03 30.806V30.788H202.744C201.856 30.788 201.226 30.944 200.854 31.256C200.494 31.556 200.314 31.934 200.314 32.39C200.314 32.858 200.482 33.236 200.818 33.524C201.166 33.8 201.652 33.938 202.276 33.938ZM213.574 38.96V26.072H214.942L215.086 27.548C215.374 27.116 215.782 26.726 216.31 26.378C216.85 26.03 217.534 25.856 218.362 25.856C219.25 25.856 220.024 26.06 220.684 26.468C221.344 26.876 221.854 27.434 222.214 28.142C222.586 28.85 222.772 29.654 222.772 30.554C222.772 31.454 222.586 32.258 222.214 32.966C221.854 33.662 221.338 34.214 220.666 34.622C220.006 35.018 219.232 35.216 218.344 35.216C217.612 35.216 216.958 35.066 216.382 34.766C215.818 34.466 215.386 34.046 215.086 33.506V38.96H213.574ZM218.182 33.902C218.782 33.902 219.31 33.764 219.766 33.488C220.222 33.2 220.582 32.804 220.846 32.3C221.11 31.796 221.242 31.208 221.242 30.536C221.242 29.864 221.11 29.276 220.846 28.772C220.582 28.268 220.222 27.878 219.766 27.602C219.31 27.314 218.782 27.17 218.182 27.17C217.582 27.17 217.054 27.314 216.598 27.602C216.142 27.878 215.782 28.268 215.518 28.772C215.254 29.276 215.122 29.864 215.122 30.536C215.122 31.208 215.254 31.796 215.518 32.3C215.782 32.804 216.142 33.2 216.598 33.488C217.054 33.764 217.582 33.902 218.182 33.902ZM224.877 35V26.072H226.245L226.371 27.782C226.647 27.194 227.067 26.726 227.631 26.378C228.195 26.03 228.891 25.856 229.719 25.856V27.44H229.305C228.777 27.44 228.291 27.536 227.847 27.728C227.403 27.908 227.049 28.22 226.785 28.664C226.521 29.108 226.389 29.72 226.389 30.5V35H224.877ZM235.15 35.216C234.31 35.216 233.554 35.024 232.882 34.64C232.21 34.256 231.676 33.716 231.28 33.02C230.896 32.312 230.704 31.484 230.704 30.536C230.704 29.588 230.902 28.766 231.298 28.07C231.694 27.362 232.228 26.816 232.9 26.432C233.584 26.048 234.346 25.856 235.186 25.856C236.026 25.856 236.782 26.048 237.454 26.432C238.126 26.816 238.654 27.362 239.038 28.07C239.434 28.766 239.632 29.588 239.632 30.536C239.632 31.484 239.434 32.312 239.038 33.02C238.642 33.716 238.102 34.256 237.418 34.64C236.746 35.024 235.99 35.216 235.15 35.216ZM235.15 33.92C235.666 33.92 236.146 33.794 236.59 33.542C237.034 33.29 237.394 32.912 237.67 32.408C237.946 31.904 238.084 31.28 238.084 30.536C238.084 29.792 237.946 29.168 237.67 28.664C237.406 28.16 237.052 27.782 236.608 27.53C236.164 27.278 235.69 27.152 235.186 27.152C234.67 27.152 234.19 27.278 233.746 27.53C233.302 27.782 232.942 28.16 232.666 28.664C232.39 29.168 232.252 29.792 232.252 30.536C232.252 31.28 232.39 31.904 232.666 32.408C232.942 32.912 233.296 33.29 233.728 33.542C234.172 33.794 234.646 33.92 235.15 33.92ZM245.784 35.216C244.896 35.216 244.116 35.012 243.444 34.604C242.784 34.196 242.268 33.638 241.896 32.93C241.536 32.222 241.356 31.418 241.356 30.518C241.356 29.618 241.542 28.82 241.914 28.124C242.286 27.416 242.802 26.864 243.462 26.468C244.122 26.06 244.902 25.856 245.802 25.856C246.534 25.856 247.182 26.006 247.746 26.306C248.31 26.606 248.748 27.026 249.06 27.566V22.04H250.572V35H249.204L249.06 33.524C248.772 33.956 248.358 34.346 247.818 34.694C247.278 35.042 246.6 35.216 245.784 35.216ZM245.946 33.902C246.546 33.902 247.074 33.764 247.53 33.488C247.998 33.2 248.358 32.804 248.61 32.3C248.874 31.796 249.006 31.208 249.006 30.536C249.006 29.864 248.874 29.276 248.61 28.772C248.358 28.268 247.998 27.878 247.53 27.602C247.074 27.314 246.546 27.17 245.946 27.17C245.358 27.17 244.83 27.314 244.362 27.602C243.906 27.878 243.546 28.268 243.282 28.772C243.03 29.276 242.904 29.864 242.904 30.536C242.904 31.208 243.03 31.796 243.282 32.3C243.546 32.804 243.906 33.2 244.362 33.488C244.83 33.764 245.358 33.902 245.946 33.902ZM256.295 35.216C255.239 35.216 254.399 34.898 253.775 34.262C253.151 33.614 252.839 32.624 252.839 31.292V26.072H254.351V31.13C254.351 32.99 255.113 33.92 256.637 33.92C257.417 33.92 258.059 33.644 258.563 33.092C259.079 32.528 259.337 31.73 259.337 30.698V26.072H260.849V35H259.481L259.373 33.398C259.097 33.962 258.683 34.406 258.131 34.73C257.591 35.054 256.979 35.216 256.295 35.216ZM267.442 35.216C266.59 35.216 265.822 35.024 265.138 34.64C264.466 34.244 263.932 33.698 263.536 33.002C263.152 32.294 262.96 31.472 262.96 30.536C262.96 29.6 263.152 28.784 263.536 28.088C263.932 27.38 264.466 26.834 265.138 26.45C265.822 26.054 266.59 25.856 267.442 25.856C268.498 25.856 269.386 26.132 270.106 26.684C270.838 27.236 271.3 27.974 271.492 28.898H269.944C269.824 28.346 269.53 27.92 269.062 27.62C268.594 27.308 268.048 27.152 267.424 27.152C266.92 27.152 266.446 27.278 266.002 27.53C265.558 27.782 265.198 28.16 264.922 28.664C264.646 29.168 264.508 29.792 264.508 30.536C264.508 31.28 264.646 31.904 264.922 32.408C265.198 32.912 265.558 33.296 266.002 33.56C266.446 33.812 266.92 33.938 267.424 33.938C268.048 33.938 268.594 33.788 269.062 33.488C269.53 33.176 269.824 32.738 269.944 32.174H271.492C271.312 33.074 270.856 33.806 270.124 34.37C269.392 34.934 268.498 35.216 267.442 35.216ZM277.617 35.216C276.765 35.216 276.009 35.024 275.349 34.64C274.689 34.244 274.167 33.698 273.783 33.002C273.411 32.306 273.225 31.484 273.225 30.536C273.225 29.6 273.411 28.784 273.783 28.088C274.155 27.38 274.671 26.834 275.331 26.45C276.003 26.054 276.777 25.856 277.653 25.856C278.517 25.856 279.261 26.054 279.885 26.45C280.521 26.834 281.007 27.344 281.343 27.98C281.679 28.616 281.847 29.3 281.847 30.032C281.847 30.164 281.841 30.296 281.829 30.428C281.829 30.56 281.829 30.71 281.829 30.878H274.719C274.755 31.562 274.911 32.132 275.187 32.588C275.475 33.032 275.829 33.368 276.249 33.596C276.681 33.824 277.137 33.938 277.617 33.938C278.241 33.938 278.763 33.794 279.183 33.506C279.603 33.218 279.909 32.828 280.101 32.336H281.595C281.355 33.164 280.893 33.854 280.209 34.406C279.537 34.946 278.673 35.216 277.617 35.216ZM277.617 27.134C276.897 27.134 276.255 27.356 275.691 27.8C275.139 28.232 274.821 28.868 274.737 29.708H280.353C280.317 28.904 280.041 28.274 279.525 27.818C279.009 27.362 278.373 27.134 277.617 27.134ZM283.851 35V26.072H285.219L285.345 27.782C285.621 27.194 286.041 26.726 286.605 26.378C287.169 26.03 287.865 25.856 288.693 25.856V27.44H288.279C287.751 27.44 287.265 27.536 286.821 27.728C286.377 27.908 286.023 28.22 285.759 28.664C285.495 29.108 285.363 29.72 285.363 30.5V35H283.851ZM16.242 62V53.072H17.61L17.7 54.674C17.988 54.11 18.402 53.666 18.942 53.342C19.482 53.018 20.094 52.856 20.778 52.856C21.834 52.856 22.674 53.18 23.298 53.828C23.934 54.464 24.252 55.448 24.252 56.78V62H22.74V56.942C22.74 55.082 21.972 54.152 20.436 54.152C19.668 54.152 19.026 54.434 18.51 54.998C18.006 55.55 17.754 56.342 17.754 57.374V62H16.242ZM30.6108 62.216C29.7708 62.216 29.0148 62.024 28.3428 61.64C27.6708 61.256 27.1368 60.716 26.7408 60.02C26.3568 59.312 26.1648 58.484 26.1648 57.536C26.1648 56.588 26.3628 55.766 26.7588 55.07C27.1548 54.362 27.6888 53.816 28.3608 53.432C29.0448 53.048 29.8068 52.856 30.6468 52.856C31.4868 52.856 32.2428 53.048 32.9148 53.432C33.5868 53.816 34.1148 54.362 34.4988 55.07C34.8948 55.766 35.0928 56.588 35.0928 57.536C35.0928 58.484 34.8948 59.312 34.4988 60.02C34.1028 60.716 33.5628 61.256 32.8788 61.64C32.2068 62.024 31.4508 62.216 30.6108 62.216ZM30.6108 60.92C31.1268 60.92 31.6068 60.794 32.0508 60.542C32.4948 60.29 32.8548 59.912 33.1308 59.408C33.4068 58.904 33.5448 58.28 33.5448 57.536C33.5448 56.792 33.4068 56.168 33.1308 55.664C32.8668 55.16 32.5128 54.782 32.0688 54.53C31.6248 54.278 31.1508 54.152 30.6468 54.152C30.1308 54.152 29.6508 54.278 29.2068 54.53C28.7628 54.782 28.4028 55.16 28.1268 55.664C27.8508 56.168 27.7128 56.792 27.7128 57.536C27.7128 58.28 27.8508 58.904 28.1268 59.408C28.4028 59.912 28.7568 60.29 29.1888 60.542C29.6328 60.794 30.1068 60.92 30.6108 60.92ZM38.6611 62L36.0511 53.072H37.5631L39.4531 60.074L41.5411 53.072H43.2511L45.3571 60.074L47.2291 53.072H48.7591L46.1491 62H44.6011L42.4051 54.638L40.2091 62H38.6611Z" fill="black"/>
<path d="M18.66 85.144C18.132 85.144 17.68 85.04 17.304 84.832C16.928 84.624 16.628 84.348 16.404 84.004C16.188 83.652 16.056 83.264 16.008 82.84H16.944C17.024 83.296 17.216 83.648 17.52 83.896C17.824 84.144 18.208 84.268 18.672 84.268C19.312 84.268 19.844 83.972 20.268 83.38C20.692 82.78 20.92 81.848 20.952 80.584C20.76 80.96 20.452 81.288 20.028 81.568C19.612 81.84 19.108 81.976 18.516 81.976C18.044 81.976 17.596 81.864 17.172 81.64C16.748 81.416 16.404 81.104 16.14 80.704C15.876 80.296 15.744 79.82 15.744 79.276C15.744 78.804 15.86 78.352 16.092 77.92C16.332 77.488 16.668 77.136 17.1 76.864C17.532 76.592 18.048 76.456 18.648 76.456C19.256 76.456 19.768 76.572 20.184 76.804C20.6 77.028 20.932 77.332 21.18 77.716C21.436 78.1 21.62 78.532 21.732 79.012C21.852 79.484 21.912 79.968 21.912 80.464C21.912 81.392 21.784 82.208 21.528 82.912C21.272 83.608 20.9 84.156 20.412 84.556C19.932 84.948 19.348 85.144 18.66 85.144ZM18.72 81.1C19.096 81.1 19.432 81.016 19.728 80.848C20.024 80.672 20.26 80.44 20.436 80.152C20.612 79.864 20.7 79.552 20.7 79.216C20.7 78.856 20.612 78.536 20.436 78.256C20.26 77.968 20.024 77.744 19.728 77.584C19.432 77.424 19.096 77.344 18.72 77.344C18.344 77.344 18.008 77.424 17.712 77.584C17.416 77.744 17.184 77.968 17.016 78.256C16.848 78.536 16.764 78.86 16.764 79.228C16.764 79.796 16.948 80.252 17.316 80.596C17.692 80.932 18.16 81.1 18.72 81.1ZM23.7346 85.06C23.5346 85.06 23.3666 84.996 23.2306 84.868C23.1026 84.732 23.0386 84.568 23.0386 84.376C23.0386 84.184 23.1026 84.024 23.2306 83.896C23.3666 83.76 23.5346 83.692 23.7346 83.692C23.9266 83.692 24.0866 83.76 24.2146 83.896C24.3506 84.024 24.4186 84.184 24.4186 84.376C24.4186 84.568 24.3506 84.732 24.2146 84.868C24.0866 84.996 23.9266 85.06 23.7346 85.06ZM23.7346 80.272C23.5346 80.272 23.3666 80.208 23.2306 80.08C23.1026 79.944 23.0386 79.78 23.0386 79.588C23.0386 79.396 23.1026 79.236 23.2306 79.108C23.3666 78.972 23.5346 78.904 23.7346 78.904C23.9266 78.904 24.0866 78.972 24.2146 79.108C24.3506 79.236 24.4186 79.396 24.4186 79.588C24.4186 79.78 24.3506 79.944 24.2146 80.08C24.0866 80.208 23.9266 80.272 23.7346 80.272ZM29.1132 85.144C28.3692 85.144 27.7252 84.964 27.1812 84.604C26.6452 84.236 26.2332 83.728 25.9452 83.08C25.6572 82.424 25.5132 81.664 25.5132 80.8C25.5132 79.936 25.6572 79.18 25.9452 78.532C26.2332 77.876 26.6452 77.368 27.1812 77.008C27.7252 76.64 28.3692 76.456 29.1132 76.456C29.8572 76.456 30.4972 76.64 31.0332 77.008C31.5692 77.368 31.9812 77.876 32.2692 78.532C32.5572 79.18 32.7012 79.936 32.7012 80.8C32.7012 81.664 32.5572 82.424 32.2692 83.08C31.9812 83.728 31.5692 84.236 31.0332 84.604C30.4972 84.964 29.8572 85.144 29.1132 85.144ZM29.1132 84.256C29.6012 84.256 30.0372 84.12 30.4212 83.848C30.8132 83.568 31.1172 83.172 31.3332 82.66C31.5572 82.14 31.6692 81.52 31.6692 80.8C31.6692 80.08 31.5572 79.464 31.3332 78.952C31.1172 78.44 30.8132 78.048 30.4212 77.776C30.0372 77.496 29.6012 77.356 29.1132 77.356C28.6172 77.356 28.1772 77.496 27.7932 77.776C27.4092 78.048 27.1052 78.44 26.8812 78.952C26.6572 79.464 26.5452 80.08 26.5452 80.8C26.5452 81.52 26.6572 82.14 26.8812 82.66C27.1052 83.172 27.4092 83.568 27.7932 83.848C28.1772 84.12 28.6172 84.256 29.1132 84.256ZM37.0135 85.144C36.4375 85.144 35.9375 85.04 35.5135 84.832C35.0895 84.624 34.7495 84.34 34.4935 83.98C34.2455 83.612 34.0935 83.196 34.0375 82.732H35.0215C35.1175 83.196 35.3415 83.572 35.6935 83.86C36.0455 84.14 36.4895 84.28 37.0255 84.28C37.4255 84.28 37.7695 84.188 38.0575 84.004C38.3455 83.812 38.5655 83.556 38.7175 83.236C38.8775 82.916 38.9575 82.56 38.9575 82.168C38.9575 81.544 38.7815 81.04 38.4295 80.656C38.0775 80.272 37.6215 80.08 37.0615 80.08C36.5975 80.08 36.2015 80.184 35.8735 80.392C35.5455 80.6 35.3055 80.872 35.1535 81.208H34.1935L34.9135 76.6H39.3175V77.476H35.6935L35.2015 80.032C35.3935 79.8 35.6575 79.608 35.9935 79.456C36.3375 79.304 36.7295 79.228 37.1695 79.228C37.7215 79.228 38.2015 79.356 38.6095 79.612C39.0255 79.868 39.3495 80.216 39.5815 80.656C39.8135 81.096 39.9295 81.596 39.9295 82.156C39.9295 82.692 39.8135 83.188 39.5815 83.644C39.3575 84.1 39.0255 84.464 38.5855 84.736C38.1535 85.008 37.6295 85.144 37.0135 85.144ZM41.4452 87.64V79.048H42.3572L42.4532 80.032C42.6452 79.744 42.9172 79.484 43.2692 79.252C43.6292 79.02 44.0852 78.904 44.6372 78.904C45.2292 78.904 45.7452 79.04 46.1852 79.312C46.6252 79.584 46.9652 79.956 47.2052 80.428C47.4532 80.9 47.5772 81.436 47.5772 82.036C47.5772 82.636 47.4532 83.172 47.2052 83.644C46.9652 84.108 46.6212 84.476 46.1732 84.748C45.7332 85.012 45.2172 85.144 44.6252 85.144C44.1372 85.144 43.7012 85.044 43.3172 84.844C42.9412 84.644 42.6532 84.364 42.4532 84.004V87.64H41.4452ZM44.5172 84.268C44.9172 84.268 45.2692 84.176 45.5732 83.992C45.8772 83.8 46.1172 83.536 46.2932 83.2C46.4692 82.864 46.5572 82.472 46.5572 82.024C46.5572 81.576 46.4692 81.184 46.2932 80.848C46.1172 80.512 45.8772 80.252 45.5732 80.068C45.2692 79.876 44.9172 79.78 44.5172 79.78C44.1172 79.78 43.7652 79.876 43.4612 80.068C43.1572 80.252 42.9172 80.512 42.7412 80.848C42.5652 81.184 42.4772 81.576 42.4772 82.024C42.4772 82.472 42.5652 82.864 42.7412 83.2C42.9172 83.536 43.1572 83.8 43.4612 83.992C43.7652 84.176 44.1172 84.268 44.5172 84.268ZM48.9803 85V79.048H49.8923L49.9643 79.912C50.1563 79.592 50.4123 79.344 50.7323 79.168C51.0523 78.992 51.4123 78.904 51.8123 78.904C52.2843 78.904 52.6883 79 53.0243 79.192C53.3683 79.384 53.6323 79.676 53.8163 80.068C54.0243 79.708 54.3083 79.424 54.6683 79.216C55.0363 79.008 55.4323 78.904 55.8563 78.904C56.5683 78.904 57.1363 79.12 57.5603 79.552C57.9843 79.976 58.1963 80.632 58.1963 81.52V85H57.2003V81.628C57.2003 81.012 57.0763 80.548 56.8283 80.236C56.5803 79.924 56.2243 79.768 55.7603 79.768C55.2803 79.768 54.8803 79.956 54.5603 80.332C54.2483 80.7 54.0923 81.228 54.0923 81.916V85H53.0843V81.628C53.0843 81.012 52.9603 80.548 52.7123 80.236C52.4643 79.924 52.1083 79.768 51.6443 79.768C51.1723 79.768 50.7763 79.956 50.4563 80.332C50.1443 80.7 49.9883 81.228 49.9883 81.916V85H48.9803Z" fill="black"/>
</svg>
