<svg xmlns="http://www.w3.org/2000/svg" width="100" height="32" fill="none" xmlns:v="https://vecta.io/nano"><rect width="100" height="32" rx="16" fill="#ffbb62"/><path d="M34.136 21V9.8h7.024v1.376h-5.328v3.536h4.416v1.36h-4.416V21h-1.696zm10.222.192c-.672 0-1.227-.112-1.664-.336s-.763-.517-.976-.88a2.41 2.41 0 0 1-.32-1.216c0-.768.299-1.376.896-1.824s1.451-.672 2.56-.672h2.08v-.144c0-.619-.171-1.083-.512-1.392-.331-.309-.763-.464-1.296-.464-.469 0-.88.117-1.232.352-.341.224-.549.56-.624 1.008h-1.696c.053-.576.245-1.067.576-1.472a3.24 3.24 0 0 1 1.28-.944 4.3 4.3 0 0 1 1.712-.336c1.109 0 1.968.293 2.576.88.608.576.912 1.365.912 2.368V21h-1.472l-.144-1.36c-.224.437-.549.805-.976 1.104s-.987.448-1.68.448zm.336-1.376c.459 0 .843-.107 1.152-.32.32-.224.565-.517.736-.88.181-.363.293-.763.336-1.2H45.03c-.672 0-1.152.117-1.44.352-.277.235-.416.528-.416.88 0 .363.133.651.4.864.277.203.651.304 1.12.304zM50.128 21v-7.936h1.504l.128 1.392c.245-.491.603-.875 1.072-1.152a3.14 3.14 0 0 1 1.648-.432c.96 0 1.712.299 2.256.896.555.597.832 1.488.832 2.672V21h-1.68v-4.384c0-1.536-.629-2.304-1.888-2.304-.629 0-1.152.224-1.568.672-.405.448-.608 1.088-.608 1.92V21h-1.696zm12.126.192c-1.003 0-1.829-.245-2.48-.736s-1.024-1.141-1.12-1.952h1.712c.085.363.288.677.608.944.32.256.741.384 1.264.384.512 0 .885-.107 1.12-.32s.352-.459.352-.736c0-.405-.165-.677-.496-.816-.32-.149-.768-.283-1.344-.4-.448-.096-.896-.224-1.344-.384a3.1 3.1 0 0 1-1.104-.672c-.288-.299-.432-.699-.432-1.2 0-.693.267-1.269.8-1.728.533-.469 1.28-.704 2.24-.704.885 0 1.6.213 2.144.64.555.427.88 1.029.976 1.808h-1.632c-.053-.341-.213-.608-.48-.8-.256-.192-.603-.288-1.04-.288-.427 0-.757.091-.992.272-.235.171-.352.395-.352.672s.16.496.48.656c.331.16.763.304 1.296.432.533.117 1.024.256 1.472.416.459.149.827.373 1.104.672s.416.736.416 1.312c.011.725-.272 1.328-.848 1.808-.565.48-1.339.72-2.32.72z" fill="#000"/></svg>