<svg width="513" height="99" viewBox="0 0 513 99" fill="none" xmlns="http://www.w3.org/2000/svg">
<rect width="513" height="99" fill="#FFFFFD"/>
<rect x="15" y="15" width="441" height="54" rx="10" fill="#F3F3F3"/>
<g clip-path="url(#clip0_1_200)">
<path d="M493.45 41.11L471.45 30.11C471.278 30.0238 471.084 29.9892 470.892 30.0105C470.701 30.0318 470.519 30.108 470.37 30.23C470.227 30.3495 470.121 30.5064 470.063 30.6831C470.004 30.8597 469.997 31.0491 470.04 31.23L473 42L470 52.74C469.959 52.8911 469.954 53.0496 469.986 53.2028C470.018 53.356 470.085 53.4997 470.182 53.6223C470.279 53.7448 470.404 53.8428 470.546 53.9084C470.688 53.9741 470.844 54.0054 471 54C471.157 53.9991 471.311 53.9614 471.45 53.89L493.45 42.89C493.614 42.8061 493.751 42.6786 493.847 42.5216C493.943 42.3645 493.994 42.1841 493.994 42C493.994 41.816 493.943 41.6355 493.847 41.4785C493.751 41.3214 493.614 41.1939 493.45 41.11ZM472.55 51.11L474.76 43H484V41H474.76L472.55 32.89L490.76 42L472.55 51.11Z" fill="black"/>
</g>
<g clip-path="url(#clip1_1_200)">
<path d="M432 40V43C432 44.8565 431.263 46.637 429.95 47.9497C428.637 49.2625 426.857 50 425 50C423.143 50 421.363 49.2625 420.05 47.9497C418.737 46.637 418 44.8565 418 43V40H416V43C416.001 45.2131 416.817 47.3482 418.293 48.9973C419.769 50.6465 421.801 51.6941 424 51.94V54H420V56H430V54H426V51.94C428.199 51.6941 430.231 50.6465 431.707 48.9973C433.183 47.3482 433.999 45.2131 434 43V40H432Z" fill="#BBBBBB"/>
<path d="M425 48C426.326 48 427.598 47.4732 428.536 46.5355C429.473 45.5979 430 44.3261 430 43V33C430 31.6739 429.473 30.4021 428.536 29.4645C427.598 28.5268 426.326 28 425 28C423.674 28 422.402 28.5268 421.464 29.4645C420.527 30.4021 420 31.6739 420 33V43C420 44.3261 420.527 45.5979 421.464 46.5355C422.402 47.4732 423.674 48 425 48ZM422 33C422 32.2044 422.316 31.4413 422.879 30.8787C423.441 30.3161 424.204 30 425 30C425.796 30 426.559 30.3161 427.121 30.8787C427.684 31.4413 428 32.2044 428 33V43C428 43.7956 427.684 44.5587 427.121 45.1213C426.559 45.6839 425.796 46 425 46C424.204 46 423.441 45.6839 422.879 45.1213C422.316 44.5587 422 43.7956 422 43V33Z" fill="#BBBBBB"/>
</g>
<g clip-path="url(#clip2_1_200)">
<path d="M365.9 44.9L380.9 29.9C383.4 27.3 387.5 27.3 390.1 29.8C392.7 32.3 392.7 36.5 390.1 39L390 39.1L387.2 42L385.8 40.6L388.7 37.7C390.4 36 390.4 33.1 388.7 31.4C387 29.7 384.1 29.6 382.4 31.3C382.4 31.3 382.4 31.3 382.3 31.4L367.4 46.3C365.6 48 365.6 50.9 367.3 52.6C369 54.4 371.9 54.4 373.6 52.7C373.6 52.7 373.6 52.7 373.7 52.6L381.1 45.2C382.1 44.2 382 42.6 381.1 41.7C380.1 40.8 378.6 40.8 377.6 41.7L373.5 45.8L372.1 44.4L376.3 40.2C378.1 38.5 380.9 38.6 382.6 40.4C384.2 42.1 384.2 44.8 382.6 46.6L375.1 54.1C372.6 56.7 368.5 56.7 365.9 54.2C363.3 51.7 363.3 47.5 365.9 44.9C365.9 45 365.9 44.9 365.9 44.9Z" fill="#BBBBBB"/>
</g>
<path d="M35.346 49.216C34.422 49.216 33.618 49.048 32.934 48.712C32.25 48.376 31.722 47.908 31.35 47.308C30.978 46.708 30.792 46.012 30.792 45.22H32.376C32.376 45.712 32.49 46.168 32.718 46.588C32.946 46.996 33.276 47.326 33.708 47.578C34.152 47.818 34.698 47.938 35.346 47.938C36.198 47.938 36.858 47.734 37.326 47.326C37.794 46.918 38.028 46.408 38.028 45.796C38.028 45.292 37.92 44.89 37.704 44.59C37.488 44.278 37.194 44.026 36.822 43.834C36.462 43.642 36.042 43.474 35.562 43.33C35.094 43.186 34.602 43.024 34.086 42.844C33.114 42.508 32.394 42.094 31.926 41.602C31.458 41.098 31.224 40.444 31.224 39.64C31.212 38.968 31.368 38.374 31.692 37.858C32.016 37.33 32.472 36.922 33.06 36.634C33.66 36.334 34.368 36.184 35.184 36.184C35.988 36.184 36.684 36.334 37.272 36.634C37.872 36.934 38.334 37.348 38.658 37.876C38.994 38.404 39.168 39.004 39.18 39.676H37.596C37.596 39.328 37.506 38.986 37.326 38.65C37.146 38.302 36.87 38.02 36.498 37.804C36.138 37.588 35.682 37.48 35.13 37.48C34.446 37.468 33.882 37.642 33.438 38.002C33.006 38.362 32.79 38.86 32.79 39.496C32.79 40.036 32.94 40.45 33.24 40.738C33.552 41.026 33.984 41.266 34.536 41.458C35.088 41.638 35.724 41.848 36.444 42.088C37.044 42.304 37.584 42.556 38.064 42.844C38.544 43.132 38.916 43.504 39.18 43.96C39.456 44.416 39.594 44.998 39.594 45.706C39.594 46.306 39.438 46.876 39.126 47.416C38.814 47.944 38.34 48.376 37.704 48.712C37.08 49.048 36.294 49.216 35.346 49.216ZM45.7163 49.216C44.8763 49.216 44.1203 49.024 43.4483 48.64C42.7763 48.256 42.2423 47.716 41.8463 47.02C41.4623 46.312 41.2703 45.484 41.2703 44.536C41.2703 43.588 41.4683 42.766 41.8643 42.07C42.2603 41.362 42.7943 40.816 43.4663 40.432C44.1503 40.048 44.9123 39.856 45.7523 39.856C46.5923 39.856 47.3483 40.048 48.0203 40.432C48.6923 40.816 49.2203 41.362 49.6043 42.07C50.0003 42.766 50.1983 43.588 50.1983 44.536C50.1983 45.484 50.0003 46.312 49.6043 47.02C49.2083 47.716 48.6683 48.256 47.9843 48.64C47.3123 49.024 46.5563 49.216 45.7163 49.216ZM45.7163 47.92C46.2323 47.92 46.7123 47.794 47.1563 47.542C47.6003 47.29 47.9603 46.912 48.2363 46.408C48.5123 45.904 48.6503 45.28 48.6503 44.536C48.6503 43.792 48.5123 43.168 48.2363 42.664C47.9723 42.16 47.6183 41.782 47.1743 41.53C46.7303 41.278 46.2563 41.152 45.7523 41.152C45.2363 41.152 44.7563 41.278 44.3123 41.53C43.8683 41.782 43.5083 42.16 43.2323 42.664C42.9563 43.168 42.8183 43.792 42.8183 44.536C42.8183 45.28 42.9563 45.904 43.2323 46.408C43.5083 46.912 43.8623 47.29 44.2943 47.542C44.7383 47.794 45.2123 47.92 45.7163 47.92ZM52.3006 49V40.072H53.6686L53.7946 41.782C54.0706 41.194 54.4906 40.726 55.0546 40.378C55.6186 40.03 56.3146 39.856 57.1426 39.856V41.44H56.7286C56.2006 41.44 55.7146 41.536 55.2706 41.728C54.8266 41.908 54.4726 42.22 54.2086 42.664C53.9446 43.108 53.8126 43.72 53.8126 44.5V49H52.3006ZM58.8397 49V40.072H60.2077L60.3337 41.782C60.6097 41.194 61.0297 40.726 61.5937 40.378C62.1577 40.03 62.8537 39.856 63.6817 39.856V41.44H63.2677C62.7397 41.44 62.2537 41.536 61.8097 41.728C61.3657 41.908 61.0117 42.22 60.7477 42.664C60.4837 43.108 60.3517 43.72 60.3517 44.5V49H58.8397ZM66.3507 52.96L68.5647 48.136H68.0427L64.4967 40.072H66.1347L69.0867 47.02L72.2187 40.072H73.7847L67.9347 52.96H66.3507ZM74.6195 49.09C74.3195 49.09 74.0675 48.994 73.8635 48.802C73.6715 48.598 73.5755 48.352 73.5755 48.064C73.5755 47.776 73.6715 47.536 73.8635 47.344C74.0675 47.14 74.3195 47.038 74.6195 47.038C74.9075 47.038 75.1475 47.14 75.3395 47.344C75.5435 47.536 75.6455 47.776 75.6455 48.064C75.6455 48.352 75.5435 48.598 75.3395 48.802C75.1475 48.994 74.9075 49.09 74.6195 49.09ZM81.6748 49L86.3188 36.4H87.9208L92.5468 49H90.9448L89.7928 45.76H84.4288L83.2588 49H81.6748ZM84.8788 44.536H89.3428L87.1108 38.308L84.8788 44.536ZM94.3299 49V40.072H95.6979L95.7879 41.674C96.0759 41.11 96.4899 40.666 97.0299 40.342C97.5699 40.018 98.1819 39.856 98.8659 39.856C99.9219 39.856 100.762 40.18 101.386 40.828C102.022 41.464 102.34 42.448 102.34 43.78V49H100.828V43.942C100.828 42.082 100.06 41.152 98.5239 41.152C97.7559 41.152 97.1139 41.434 96.5979 41.998C96.0939 42.55 95.8419 43.342 95.8419 44.374V49H94.3299ZM108.699 49.216C107.859 49.216 107.103 49.024 106.431 48.64C105.759 48.256 105.225 47.716 104.829 47.02C104.445 46.312 104.253 45.484 104.253 44.536C104.253 43.588 104.451 42.766 104.847 42.07C105.243 41.362 105.777 40.816 106.449 40.432C107.133 40.048 107.895 39.856 108.735 39.856C109.575 39.856 110.331 40.048 111.003 40.432C111.675 40.816 112.203 41.362 112.587 42.07C112.983 42.766 113.181 43.588 113.181 44.536C113.181 45.484 112.983 46.312 112.587 47.02C112.191 47.716 111.651 48.256 110.967 48.64C110.295 49.024 109.539 49.216 108.699 49.216ZM108.699 47.92C109.215 47.92 109.695 47.794 110.139 47.542C110.583 47.29 110.943 46.912 111.219 46.408C111.495 45.904 111.633 45.28 111.633 44.536C111.633 43.792 111.495 43.168 111.219 42.664C110.955 42.16 110.601 41.782 110.157 41.53C109.713 41.278 109.239 41.152 108.735 41.152C108.219 41.152 107.739 41.278 107.295 41.53C106.851 41.782 106.491 42.16 106.215 42.664C105.939 43.168 105.801 43.792 105.801 44.536C105.801 45.28 105.939 45.904 106.215 46.408C106.491 46.912 106.845 47.29 107.277 47.542C107.721 47.794 108.195 47.92 108.699 47.92ZM118.459 49C117.643 49 117.001 48.802 116.533 48.406C116.065 48.01 115.831 47.296 115.831 46.264V41.35H114.283V40.072H115.831L116.029 37.93H117.343V40.072H119.971V41.35H117.343V46.264C117.343 46.828 117.457 47.212 117.685 47.416C117.913 47.608 118.315 47.704 118.891 47.704H119.827V49H118.459ZM121.892 49V36.04H123.404V41.602C123.704 41.05 124.13 40.624 124.682 40.324C125.234 40.012 125.834 39.856 126.482 39.856C127.514 39.856 128.342 40.18 128.966 40.828C129.59 41.464 129.902 42.448 129.902 43.78V49H128.408V43.942C128.408 42.082 127.658 41.152 126.158 41.152C125.378 41.152 124.724 41.434 124.196 41.998C123.668 42.55 123.404 43.342 123.404 44.374V49H121.892ZM136.207 49.216C135.355 49.216 134.599 49.024 133.939 48.64C133.279 48.244 132.757 47.698 132.373 47.002C132.001 46.306 131.815 45.484 131.815 44.536C131.815 43.6 132.001 42.784 132.373 42.088C132.745 41.38 133.261 40.834 133.921 40.45C134.593 40.054 135.367 39.856 136.243 39.856C137.107 39.856 137.851 40.054 138.475 40.45C139.111 40.834 139.597 41.344 139.933 41.98C140.269 42.616 140.437 43.3 140.437 44.032C140.437 44.164 140.431 44.296 140.419 44.428C140.419 44.56 140.419 44.71 140.419 44.878H133.309C133.345 45.562 133.501 46.132 133.777 46.588C134.065 47.032 134.419 47.368 134.839 47.596C135.271 47.824 135.727 47.938 136.207 47.938C136.831 47.938 137.353 47.794 137.773 47.506C138.193 47.218 138.499 46.828 138.691 46.336H140.185C139.945 47.164 139.483 47.854 138.799 48.406C138.127 48.946 137.263 49.216 136.207 49.216ZM136.207 41.134C135.487 41.134 134.845 41.356 134.281 41.8C133.729 42.232 133.411 42.868 133.327 43.708H138.943C138.907 42.904 138.631 42.274 138.115 41.818C137.599 41.362 136.963 41.134 136.207 41.134ZM142.441 49V40.072H143.809L143.935 41.782C144.211 41.194 144.631 40.726 145.195 40.378C145.759 40.03 146.455 39.856 147.283 39.856V41.44H146.869C146.341 41.44 145.855 41.536 145.411 41.728C144.967 41.908 144.613 42.22 144.349 42.664C144.085 43.108 143.953 43.72 143.953 44.5V49H142.441ZM157.272 49C156.456 49 155.814 48.802 155.346 48.406C154.878 48.01 154.644 47.296 154.644 46.264V41.35H153.096V40.072H154.644L154.842 37.93H156.156V40.072H158.784V41.35H156.156V46.264C156.156 46.828 156.27 47.212 156.498 47.416C156.726 47.608 157.128 47.704 157.704 47.704H158.64V49H157.272ZM161.623 38.092C161.323 38.092 161.071 37.996 160.867 37.804C160.675 37.6 160.579 37.348 160.579 37.048C160.579 36.76 160.675 36.52 160.867 36.328C161.071 36.136 161.323 36.04 161.623 36.04C161.911 36.04 162.157 36.136 162.361 36.328C162.565 36.52 162.667 36.76 162.667 37.048C162.667 37.348 162.565 37.6 162.361 37.804C162.157 37.996 161.911 38.092 161.623 38.092ZM160.867 49V40.072H162.379V49H160.867ZM165.012 49V40.072H166.38L166.488 41.368C166.776 40.888 167.16 40.516 167.64 40.252C168.12 39.988 168.66 39.856 169.26 39.856C169.968 39.856 170.574 40 171.078 40.288C171.594 40.576 171.99 41.014 172.266 41.602C172.578 41.062 173.004 40.636 173.544 40.324C174.096 40.012 174.69 39.856 175.326 39.856C176.394 39.856 177.246 40.18 177.882 40.828C178.518 41.464 178.836 42.448 178.836 43.78V49H177.342V43.942C177.342 43.018 177.156 42.322 176.784 41.854C176.412 41.386 175.878 41.152 175.182 41.152C174.462 41.152 173.862 41.434 173.382 41.998C172.914 42.55 172.68 43.342 172.68 44.374V49H171.168V43.942C171.168 43.018 170.982 42.322 170.61 41.854C170.238 41.386 169.704 41.152 169.008 41.152C168.3 41.152 167.706 41.434 167.226 41.998C166.758 42.55 166.524 43.342 166.524 44.374V49H165.012ZM185.127 49.216C184.275 49.216 183.519 49.024 182.859 48.64C182.199 48.244 181.677 47.698 181.293 47.002C180.921 46.306 180.735 45.484 180.735 44.536C180.735 43.6 180.921 42.784 181.293 42.088C181.665 41.38 182.181 40.834 182.841 40.45C183.513 40.054 184.287 39.856 185.163 39.856C186.027 39.856 186.771 40.054 187.395 40.45C188.031 40.834 188.517 41.344 188.853 41.98C189.189 42.616 189.357 43.3 189.357 44.032C189.357 44.164 189.351 44.296 189.339 44.428C189.339 44.56 189.339 44.71 189.339 44.878H182.229C182.265 45.562 182.421 46.132 182.697 46.588C182.985 47.032 183.339 47.368 183.759 47.596C184.191 47.824 184.647 47.938 185.127 47.938C185.751 47.938 186.273 47.794 186.693 47.506C187.113 47.218 187.419 46.828 187.611 46.336H189.105C188.865 47.164 188.403 47.854 187.719 48.406C187.047 48.946 186.183 49.216 185.127 49.216ZM185.127 41.134C184.407 41.134 183.765 41.356 183.201 41.8C182.649 42.232 182.331 42.868 182.247 43.708H187.863C187.827 42.904 187.551 42.274 187.035 41.818C186.519 41.362 185.883 41.134 185.127 41.134Z" fill="black"/>
<defs>
<clipPath id="clip0_1_200">
<rect width="32" height="32" fill="white" transform="translate(466 26)"/>
</clipPath>
<clipPath id="clip1_1_200">
<rect width="32" height="32" fill="white" transform="translate(409 26)"/>
</clipPath>
<clipPath id="clip2_1_200">
<rect width="32" height="32" fill="white" transform="matrix(-1 0 0 1 394 26)"/>
</clipPath>
</defs>
</svg>
