<svg width="64" height="64" viewBox="0 0 64 64" fill="none" xmlns="http://www.w3.org/2000/svg">
<g clip-path="url(#clip0_1_237)">
<path d="M34 44H30C29.4696 44 28.9609 43.7893 28.5858 43.4142C28.2107 43.0391 28 42.5304 28 42V34.41L20.59 27C20.2144 26.6266 20.0022 26.1196 20 25.59V22C20 21.4696 20.2107 20.9609 20.5858 20.5858C20.9609 20.2107 21.4696 20 22 20H42C42.5304 20 43.0391 20.2107 43.4142 20.5858C43.7893 20.9609 44 21.4696 44 22V25.59C43.9978 26.1196 43.7856 26.6266 43.41 27L36 34.41V42C36 42.5304 35.7893 43.0391 35.4142 43.4142C35.0391 43.7893 34.5304 44 34 44ZM22 22V25.59L30 33.59V42H34V33.59L42 25.59V22H22Z" fill="white"/>
</g>
<circle cx="32" cy="32" r="30.75" stroke="#FF8C62" stroke-width="2.5"/>
<defs>
<clipPath id="clip0_1_237">
<rect width="32" height="32" fill="white" transform="translate(16 16)"/>
</clipPath>
</defs>
</svg>
