<svg width="110" height="32" viewBox="0 0 110 32" fill="none" xmlns="http://www.w3.org/2000/svg">
<rect width="110" height="32" rx="16" fill="#FF8C62"/>
<path d="M21.032 12.56C20.712 12.56 20.4453 12.464 20.232 12.272C20.0293 12.0693 19.928 11.8187 19.928 11.52C19.928 11.2213 20.0293 10.976 20.232 10.784C20.4453 10.5813 20.712 10.48 21.032 10.48C21.352 10.48 21.6133 10.5813 21.816 10.784C22.0293 10.976 22.136 11.2213 22.136 11.52C22.136 11.8187 22.0293 12.0693 21.816 12.272C21.6133 12.464 21.352 12.56 21.032 12.56ZM20.184 22V14.064H21.88V22H20.184ZM23.6389 22V14.064H25.1429L25.2709 15.456C25.5162 14.9653 25.8735 14.5813 26.3429 14.304C26.8229 14.016 27.3722 13.872 27.9909 13.872C28.9509 13.872 29.7029 14.1707 30.2469 14.768C30.8015 15.3653 31.0789 16.256 31.0789 17.44V22H29.3989V17.616C29.3989 16.08 28.7695 15.312 27.5109 15.312C26.8815 15.312 26.3589 15.536 25.9429 15.984C25.5375 16.432 25.3349 17.072 25.3349 17.904V22H23.6389ZM32.9964 22V15.488H31.8604V14.064H32.9964V12.912C32.9964 12.048 33.2097 11.4293 33.6364 11.056C34.0737 10.672 34.687 10.48 35.4764 10.48H36.3084V11.92H35.7324C35.359 11.92 35.0924 12 34.9324 12.16C34.7724 12.3093 34.6924 12.5653 34.6924 12.928V14.064H36.5164V15.488H34.6924V22H32.9964ZM38.1324 22V10.48H39.8284V22H38.1324ZM44.435 22.192C43.475 22.192 42.7177 21.8933 42.163 21.296C41.619 20.6987 41.347 19.808 41.347 18.624V14.064H43.043V18.448C43.043 19.984 43.6723 20.752 44.931 20.752C45.5603 20.752 46.0777 20.528 46.483 20.08C46.8883 19.632 47.091 18.992 47.091 18.16V14.064H48.787V22H47.283L47.155 20.608C46.9097 21.0987 46.547 21.488 46.067 21.776C45.5977 22.0533 45.0537 22.192 44.435 22.192ZM54.1765 22.192C53.3978 22.192 52.7045 22.0213 52.0965 21.68C51.4992 21.328 51.0298 20.8427 50.6885 20.224C50.3472 19.6053 50.1765 18.8853 50.1765 18.064C50.1765 17.232 50.3418 16.5013 50.6725 15.872C51.0138 15.2427 51.4832 14.752 52.0805 14.4C52.6885 14.048 53.3925 13.872 54.1925 13.872C54.9712 13.872 55.6485 14.048 56.2245 14.4C56.8005 14.7413 57.2485 15.2 57.5685 15.776C57.8885 16.352 58.0485 16.9867 58.0485 17.68C58.0485 17.7867 58.0432 17.904 58.0325 18.032C58.0325 18.1493 58.0272 18.2827 58.0165 18.432H51.8405C51.8938 19.2 52.1445 19.7867 52.5925 20.192C53.0512 20.5867 53.5792 20.784 54.1765 20.784C54.6565 20.784 55.0565 20.6773 55.3765 20.464C55.7072 20.24 55.9525 19.9413 56.1125 19.568H57.8085C57.5952 20.3147 57.1685 20.9387 56.5285 21.44C55.8992 21.9413 55.1152 22.192 54.1765 22.192ZM54.1765 15.264C53.6112 15.264 53.1098 15.4347 52.6725 15.776C52.2352 16.1067 51.9685 16.608 51.8725 17.28H56.3525C56.3205 16.6613 56.1018 16.1707 55.6965 15.808C55.2912 15.4453 54.7845 15.264 54.1765 15.264ZM59.3282 22V14.064H60.8322L60.9602 15.456C61.2056 14.9653 61.5629 14.5813 62.0322 14.304C62.5122 14.016 63.0616 13.872 63.6802 13.872C64.6402 13.872 65.3922 14.1707 65.9362 14.768C66.4909 15.3653 66.7682 16.256 66.7682 17.44V22H65.0882V17.616C65.0882 16.08 64.4589 15.312 63.2002 15.312C62.5709 15.312 62.0482 15.536 61.6322 15.984C61.2269 16.432 61.0242 17.072 61.0242 17.904V22H59.3282ZM72.0457 22.192C71.2671 22.192 70.5684 22.016 69.9497 21.664C69.3417 21.312 68.8617 20.8267 68.5097 20.208C68.1684 19.5787 67.9977 18.8533 67.9977 18.032C67.9977 17.2107 68.1684 16.4907 68.5097 15.872C68.8617 15.2427 69.3417 14.752 69.9497 14.4C70.5684 14.048 71.2671 13.872 72.0457 13.872C73.0271 13.872 73.8484 14.128 74.5097 14.64C75.1817 15.152 75.6137 15.8453 75.8057 16.72H74.0297C73.9231 16.2827 73.6884 15.9413 73.3257 15.696C72.9631 15.4507 72.5364 15.328 72.0457 15.328C71.6297 15.328 71.2457 15.4347 70.8937 15.648C70.5417 15.8507 70.2591 16.1547 70.0457 16.56C69.8324 16.9547 69.7257 17.4453 69.7257 18.032C69.7257 18.6187 69.8324 19.1147 70.0457 19.52C70.2591 19.9147 70.5417 20.2187 70.8937 20.432C71.2457 20.6453 71.6297 20.752 72.0457 20.752C72.5364 20.752 72.9631 20.6293 73.3257 20.384C73.6884 20.1387 73.9231 19.792 74.0297 19.344H75.8057C75.6244 20.1973 75.1977 20.8853 74.5257 21.408C73.8537 21.9307 73.0271 22.192 72.0457 22.192ZM80.8771 22.192C80.0985 22.192 79.4051 22.0213 78.7971 21.68C78.1998 21.328 77.7305 20.8427 77.3891 20.224C77.0478 19.6053 76.8771 18.8853 76.8771 18.064C76.8771 17.232 77.0425 16.5013 77.3731 15.872C77.7145 15.2427 78.1838 14.752 78.7811 14.4C79.3891 14.048 80.0931 13.872 80.8931 13.872C81.6718 13.872 82.3491 14.048 82.9251 14.4C83.5011 14.7413 83.9491 15.2 84.2691 15.776C84.5891 16.352 84.7491 16.9867 84.7491 17.68C84.7491 17.7867 84.7438 17.904 84.7331 18.032C84.7331 18.1493 84.7278 18.2827 84.7171 18.432H78.5411C78.5945 19.2 78.8451 19.7867 79.2931 20.192C79.7518 20.5867 80.2798 20.784 80.8771 20.784C81.3571 20.784 81.7571 20.6773 82.0771 20.464C82.4078 20.24 82.6531 19.9413 82.8131 19.568H84.5091C84.2958 20.3147 83.8691 20.9387 83.2291 21.44C82.5998 21.9413 81.8158 22.192 80.8771 22.192ZM80.8771 15.264C80.3118 15.264 79.8105 15.4347 79.3731 15.776C78.9358 16.1067 78.6691 16.608 78.5731 17.28H83.0531C83.0211 16.6613 82.8025 16.1707 82.3971 15.808C81.9918 15.4453 81.4851 15.264 80.8771 15.264ZM86.0289 22V14.064H87.5489L87.6929 15.568C87.9702 15.0453 88.3542 14.6347 88.8449 14.336C89.3462 14.0267 89.9489 13.872 90.6529 13.872V15.648H90.1889C89.7195 15.648 89.2982 15.728 88.9249 15.888C88.5622 16.0373 88.2689 16.2987 88.0449 16.672C87.8315 17.0347 87.7249 17.5413 87.7249 18.192V22H86.0289Z" fill="black"/>
</svg>
