<?xml version="1.0" standalone="no"?>
<!DOCTYPE svg PUBLIC "-//W3C//DTD SVG 20010904//EN"
 "http://www.w3.org/TR/2001/REC-SVG-20010904/DTD/svg10.dtd">
<svg version="1.0" xmlns="http://www.w3.org/2000/svg"
 width="387.000000pt" height="516.000000pt" viewBox="0 0 387.000000 516.000000"
 preserveAspectRatio="xMidYMid meet">

<g transform="translate(0.000000,516.000000) scale(0.100000,-0.100000)"
fill="#000000" stroke="none">
<path d="M0 2595 l0 -2565 173 -3 172 -3 -172 -2 c-107 -1 -173 -6 -173 -12 0
-7 652 -10 1935 -10 1278 0 1935 3 1935 10 0 6 -371 11 -1077 13 l-1078 2
1078 3 1077 2 0 2565 0 2565 -1935 0 -1935 0 0 -2565z m2866 2171 c61 -28 107
-82 125 -145 12 -38 13 -230 11 -1056 -3 -820 -1 -1008 9 -997 18 17 29 15 29
-5 1 -14 8 -10 29 15 25 29 33 32 83 32 43 0 59 -5 74 -21 17 -18 19 -19 30
-4 9 13 14 13 20 3 12 -19 6 -66 -17 -135 -25 -75 -42 -92 -72 -74 -14 9 -22
10 -25 3 -2 -6 -10 -8 -18 -5 -8 3 -14 -1 -14 -10 0 -10 -8 -13 -27 -10 -61 9
-72 14 -78 33 -18 55 -25 5 -25 -167 l1 -188 31 38 c35 43 91 71 122 61 12 -4
32 -15 45 -26 23 -17 25 -17 43 -2 17 16 18 16 18 -5 0 -28 -26 -79 -54 -107
-40 -39 -53 -61 -52 -85 1 -22 -3 -24 -50 -27 -40 -2 -54 2 -69 18 -10 11 -22
20 -26 20 -4 0 -7 -55 -7 -123 1 -139 -13 -187 -73 -244 -68 -65 -45 -63 -725
-63 l-618 -1 -54 27 c-65 32 -107 86 -122 157 -7 35 -11 378 -13 1024 -1 534
-5 975 -9 978 -9 10 -38 -20 -38 -39 0 -8 -4 -17 -9 -20 -5 -3 1 -33 12 -66
19 -54 20 -67 9 -132 -6 -40 -13 -89 -16 -108 -2 -19 -12 -40 -21 -46 -11 -8
-15 -20 -11 -32 10 -29 -14 -39 -33 -15 -9 11 -23 22 -31 26 -12 4 -11 6 3 6
15 1 17 7 11 39 -4 20 -12 52 -19 71 -7 23 -9 54 -3 94 4 33 6 62 4 64 -2 2
-14 -21 -26 -52 -15 -38 -29 -57 -44 -60 -11 -3 -40 -9 -63 -14 l-43 -9 0 57
c0 61 16 264 26 324 9 58 52 97 106 97 63 0 136 -54 169 -125 l19 -40 0 45 c1
25 1 146 0 270 0 124 0 252 0 285 -1 33 3 121 7 195 9 152 26 198 86 244 72
55 63 55 722 55 l610 1 51 -24z m504 -1033 c107 -56 122 -175 33 -253 l-28
-25 26 30 c33 37 39 55 27 77 -7 15 -22 17 -94 16 -47 -1 -87 -6 -90 -10 -3
-4 -13 -8 -22 -8 -10 0 -26 -14 -36 -31 -11 -19 -23 -28 -33 -25 -8 3 -27 6
-41 6 -37 0 -52 36 -52 122 0 54 -4 72 -20 88 -19 19 -19 19 13 25 54 8 98 12
183 13 72 2 88 -1 134 -25z m-183 -390 c20 -26 63 -92 63 -97 0 -7 -42 36 -68
69 -22 28 -28 45 -16 45 4 0 13 -8 21 -17z m-2136 -56 c-10 -9 -11 -8 -5 6 3
10 9 15 12 12 3 -3 0 -11 -7 -18z m2047 -121 c7 8 25 14 40 13 72 -2 128 -78
139 -189 4 -48 13 -76 33 -105 15 -22 33 -51 40 -65 l13 -25 -24 21 c-13 12
-34 30 -46 40 -13 10 -23 25 -23 34 0 8 -5 22 -11 30 -8 12 -9 10 -4 -7 6 -22
-9 -41 -19 -24 -4 5 -19 3 -36 -6 -27 -13 -35 -13 -83 3 -70 23 -84 37 -98
102 -13 64 -6 135 17 170 14 21 17 22 32 9 15 -13 19 -13 30 -1z m-1783 -5 c3
-6 -3 -14 -13 -20 -14 -7 -19 -6 -19 4 0 7 7 11 15 7 10 -3 13 -1 8 6 -4 7 -5
12 -2 12 3 0 7 -4 11 -9z m2030 -488 c-5 -10 -7 -21 -7 -25 1 -5 -2 -8 -8 -8
-13 0 -13 16 2 40 15 23 24 18 13 -7z m-2274 -127 c-7 -8 -10 -20 -6 -26 3 -5
1 -10 -6 -10 -8 0 -9 -4 0 -13 6 -8 9 -23 6 -35 -2 -12 0 -22 6 -22 5 0 9 8
10 18 0 14 2 14 9 -3 13 -29 12 -45 -2 -40 -7 3 -26 -4 -43 -16 l-30 -20 34 6
c22 5 31 4 27 -3 -4 -6 2 -8 14 -5 16 4 20 0 21 -18 0 -17 2 -20 7 -9 9 19 32
24 32 8 0 -10 2 -10 9 0 7 11 9 11 14 -1 3 -9 -6 -18 -29 -27 -19 -8 -34 -19
-34 -26 0 -14 -61 -45 -74 -37 -5 4 -7 -1 -3 -10 3 -9 2 -19 -4 -22 -5 -4 -8
-1 -7 7 2 7 -3 12 -9 11 -7 -2 -13 1 -13 5 0 4 6 14 13 21 10 11 10 13 0 7 -7
-4 -14 -2 -14 3 -1 6 -2 15 -3 20 0 5 -5 13 -10 18 -5 5 -6 3 -2 -4 4 -7 2
-13 -3 -13 -16 0 -13 11 7 33 15 18 15 20 0 14 -16 -6 -32 15 -21 27 11 11 24
6 17 -6 -5 -7 -3 -8 6 -3 10 6 9 11 -5 22 -12 8 -14 13 -6 13 8 0 11 6 7 16
-3 8 -2 12 4 9 10 -6 14 6 11 38 -2 10 5 17 14 17 9 0 14 4 11 9 -6 9 46 72
53 65 2 -2 -2 -10 -8 -18z m-261 -97 c0 -5 -4 -9 -10 -9 -5 0 -10 7 -10 16 0
8 5 12 10 9 6 -3 10 -10 10 -16z m-30 -49 c0 -5 -5 -10 -11 -10 -5 0 -7 5 -4
10 3 6 8 10 11 10 2 0 4 -4 4 -10z m2552 -37 c14 -16 33 -41 43 -56 l18 -28
-52 32 c-59 37 -65 44 -57 64 8 22 19 19 48 -12z m-2552 -25 c0 -5 -4 -6 -10
-3 -5 3 -10 1 -10 -5 0 -6 -4 -9 -10 -5 -14 9 0 34 16 28 8 -3 14 -9 14 -15z
m367 -74 c-2 -2 -15 0 -28 5 -18 7 -20 10 -6 10 10 1 16 5 13 10 -4 5 0 11 6
14 12 4 25 -29 15 -39z m43 34 c0 -4 -7 -8 -15 -8 -8 0 -15 4 -15 8 0 5 7 9
15 9 8 0 15 -4 15 -9z m-23 -40 c-3 -8 -6 -5 -6 6 -1 11 2 17 5 13 3 -3 4 -12
1 -19z m-80 -20 c-3 -8 -6 -5 -6 6 -1 11 2 17 5 13 3 -3 4 -12 1 -19z m109
-15 c-11 -11 -19 6 -11 24 8 17 8 17 12 0 3 -10 2 -21 -1 -24z m-66 17 c0 -5
9 -10 20 -10 34 0 22 -16 -13 -17 -25 -1 -33 3 -34 18 -1 11 5 19 13 19 8 0
14 -4 14 -10z m120 -4 c0 -3 -4 -8 -10 -11 -5 -3 -10 -1 -10 4 0 6 5 11 10 11
6 0 10 -2 10 -4z m-125 -55 c3 -5 1 -12 -5 -16 -5 -3 -10 1 -10 9 0 18 6 21
15 7z m65 -14 c0 16 44 21 58 7 8 -9 8 -14 -3 -18 -8 -3 -15 -12 -15 -21 0 -8
-4 -15 -10 -15 -5 0 -10 -10 -10 -21 0 -17 -5 -20 -25 -17 -14 3 -25 1 -25 -3
0 -5 -7 -9 -15 -9 -8 0 -15 7 -15 16 0 8 7 22 15 30 18 19 20 54 3 54 -9 0 -8
4 2 10 11 7 19 5 28 -7 6 -9 12 -12 12 -6z m-46 -32 c-4 -8 -10 -12 -15 -9
-11 6 -2 24 11 24 5 0 7 -7 4 -15z m-44 -98 c0 -12 -4 -28 -9 -35 -6 -11 -10
-10 -15 4 -4 10 -3 20 2 23 5 3 8 14 6 24 -1 9 2 15 7 11 5 -3 9 -15 9 -27z
m25 13 c3 -5 1 -10 -4 -10 -6 0 -11 5 -11 10 0 6 2 10 4 10 3 0 8 -4 11 -10z
m90 -10 c-7 -12 8 -14 19 -2 4 4 13 7 19 7 21 1 26 -18 11 -47 -13 -25 -13
-28 1 -28 9 0 13 -5 10 -10 -4 -6 -10 -8 -15 -5 -9 6 -8 -48 1 -55 4 -3 5 -17
2 -32 -6 -33 -94 -87 -151 -94 -25 -3 -32 -1 -23 5 20 13 22 39 4 49 -12 7 -6
14 28 31 34 18 44 20 51 9 7 -10 8 -8 4 5 -3 11 0 17 9 17 7 0 17 5 20 10 4 6
-17 1 -45 -10 -43 -17 -55 -18 -69 -8 -9 7 -18 14 -20 15 -2 1 2 9 9 18 8 10
9 15 1 15 -31 0 -4 29 53 59 36 18 67 39 70 47 3 8 8 14 11 14 4 0 3 -4 0 -10z
m-75 -14 c0 -2 -7 -6 -15 -10 -8 -3 -15 -1 -15 4 0 6 7 10 15 10 8 0 15 -2 15
-4z m2119 -116 c-18 -22 -34 -40 -37 -40 -5 0 12 24 42 58 33 37 29 25 -5 -18z
m-2164 -40 c3 -5 1 -10 -4 -10 -6 0 -11 5 -11 10 0 6 2 10 4 10 3 0 8 -4 11
-10z m221 -59 c-4 -5 -2 -21 4 -35 6 -17 6 -26 0 -26 -6 0 -8 -11 -6 -25 4
-23 2 -25 -17 -20 -17 5 -19 4 -7 -4 20 -14 4 -39 -39 -64 -39 -24 -41 -6 -3
30 21 20 23 25 7 18 -11 -4 -29 -10 -40 -13 -11 -3 -24 -11 -28 -19 -8 -14
-38 -18 -36 -5 4 24 -2 52 -11 47 -5 -3 -7 -12 -3 -20 9 -26 -23 -16 -35 10
-11 23 -8 27 30 55 22 17 49 30 60 30 10 0 18 4 18 8 0 12 61 41 88 41 13 1
21 -3 18 -8z m26 -183 c-6 -7 -11 -16 -11 -20 -1 -5 -4 -8 -8 -8 -5 0 -8 3 -8
8 0 4 -4 13 -8 20 -6 8 0 12 19 12 20 0 24 -3 16 -12z m-57 -17 c-3 -6 -11
-11 -17 -11 -6 0 -6 6 2 15 14 17 26 13 15 -4z m-75 -1 c0 -5 -5 -10 -11 -10
-5 0 -7 5 -4 10 3 6 8 10 11 10 2 0 4 -4 4 -10z m108 -35 c-3 -3 -15 -8 -27
-10 -13 -2 -31 -7 -41 -10 -10 -3 -22 -1 -25 6 -9 14 15 30 35 24 8 -2 22 0
30 5 15 9 39 -4 28 -15z m33 -48 c-10 -9 -11 -8 -5 6 3 10 9 15 12 12 3 -3 0
-11 -7 -18z m1373 -169 c-21 -40 -56 -102 -79 -138 -23 -36 -55 -90 -71 -120
-33 -63 -101 -169 -122 -189 -7 -8 -21 -26 -30 -40 -9 -14 -62 -82 -118 -151
-55 -69 -128 -161 -160 -205 -71 -95 -87 -116 -136 -169 l-38 -41 25 52 c14
29 24 56 24 60 -3 21 5 36 47 82 26 28 53 51 60 51 8 0 14 5 14 10 0 6 9 19
20 30 12 12 36 44 54 73 19 29 65 86 103 127 38 41 80 91 93 110 13 19 30 39
37 43 7 4 13 12 13 16 0 5 16 32 35 61 19 29 35 56 35 60 0 5 31 55 69 112 37
57 81 128 96 158 28 56 55 93 62 86 3 -2 -12 -37 -33 -78z m-2017 -120 c-3 -7
-5 -2 -5 12 0 14 2 19 5 13 2 -7 2 -19 0 -25z m1367 -360 c5 9 19 10 43 6 33
-6 35 -5 28 17 -7 22 -7 22 9 6 10 -9 15 -21 12 -25 -3 -5 6 -20 19 -32 19
-18 22 -26 13 -31 -7 -5 -14 -13 -14 -19 -1 -5 -3 -12 -4 -15 -1 -3 -3 -11 -4
-17 0 -7 -8 -13 -16 -13 -16 -1 -16 -6 -6 -41 8 -26 -6 -33 -51 -27 -21 4 -33
11 -34 22 -1 9 -7 -2 -14 -24 l-13 -40 -1 48 c-1 39 2 47 15 45 25 -4 28 18 5
41 -14 14 -21 39 -26 93 l-6 73 19 -40 c12 -26 21 -35 26 -27z m-119 6 c13 -3
29 -3 34 1 10 6 17 -37 12 -73 -1 -8 3 -20 10 -28 9 -11 8 -15 -5 -20 -9 -3
-13 -10 -10 -15 3 -5 0 -9 -6 -9 -6 0 -15 -12 -20 -26 -6 -14 -14 -23 -19 -19
-11 6 -34 -29 -25 -38 3 -3 -4 -15 -15 -26 -23 -23 -27 -19 -34 34 -2 17 -5 3
-6 -30 -1 -33 -6 -67 -11 -75 -6 -10 -10 -11 -10 -3 0 7 -13 19 -29 27 -26 14
-30 14 -36 -1 -5 -15 -7 -15 -16 -3 -7 12 -11 12 -17 3 -6 -9 -12 -7 -25 7
-19 22 -25 136 -7 125 6 -3 10 1 10 9 0 9 6 13 14 10 8 -3 16 2 19 13 3 14 7
10 19 -17 l16 -34 -1 55 c-2 57 15 89 46 89 9 0 18 6 20 13 3 7 6 5 6 -5 1
-10 6 -18 12 -18 5 0 7 5 4 10 -3 6 -2 10 4 10 5 0 12 -8 14 -17 3 -10 5 3 6
28 1 46 13 74 19 45 2 -9 14 -19 27 -22z m-55 -4 c0 -5 -4 -10 -10 -10 -5 0
-10 5 -10 10 0 6 5 10 10 10 6 0 10 -4 10 -10z m119 -194 c-2 -34 -6 -43 -18
-41 -9 2 -17 4 -18 5 -2 2 -9 3 -15 4 -7 1 -12 8 -10 16 3 13 48 60 58 60 3 0
4 -20 3 -44z m-338 -9 c-10 -9 -11 -8 -5 6 3 10 9 15 12 12 3 -3 0 -11 -7 -18z
m1 -49 c-7 -7 -12 -8 -12 -2 0 14 12 26 19 19 2 -3 -1 -11 -7 -17z m248 -67
c0 -11 -3 -11 -14 -1 -8 6 -12 18 -9 27 5 12 7 12 14 1 5 -7 9 -19 9 -27z
m-44 -27 c-4 -9 -9 -15 -11 -12 -3 3 -3 13 1 22 4 9 9 15 11 12 3 -3 3 -13 -1
-22z m-478 -511 c-16 -2 -40 -2 -55 0 -16 2 -3 4 27 4 30 0 43 -2 28 -4z"/>
<path d="M2192 4686 c1 -10 8 -17 13 -17 15 1 12 24 -3 29 -9 3 -13 -2 -10
-12z"/>
<path d="M1924 4585 c-4 -9 -2 -21 4 -27 15 -15 44 -1 40 19 -4 23 -36 29 -44
8z"/>
<path d="M2091 4582 c-6 -2 -11 -8 -11 -13 0 -6 50 -8 123 -7 152 4 156 22 5
23 -59 0 -112 -1 -117 -3z"/>
<path d="M1605 4311 c-3 -5 -2 -12 3 -15 5 -3 9 1 9 9 0 17 -3 19 -12 6z"/>
<path d="M1683 4068 c-18 -13 -31 -31 -30 -43 0 -11 0 -44 -1 -72 -2 -47 -5
-53 -27 -59 -14 -3 -25 -12 -25 -19 0 -7 -7 -15 -15 -19 -29 -11 9 -66 46 -66
13 0 20 11 25 34 5 32 8 34 31 25 15 -6 31 -5 42 1 27 14 32 2 15 -31 l-15
-29 65 0 c45 0 69 5 80 16 21 21 22 103 1 109 -8 3 -22 7 -30 10 -13 4 -14 9
-5 25 9 16 8 20 -5 20 -27 0 -36 -42 -14 -66 10 -11 19 -26 19 -32 0 -13 -69
-17 -71 -4 0 4 -3 19 -5 35 -3 15 2 37 10 49 11 15 12 25 6 34 -6 6 -8 19 -4
27 4 12 11 14 31 6 13 -5 29 -9 34 -9 14 0 11 56 -3 67 -19 14 -61 9 -88 -10
-28 -20 -50 -23 -32 -5 14 14 16 28 4 28 -4 0 -21 -10 -39 -22z m26 -77 c-15
-5 -22 6 -14 19 6 9 10 9 16 -1 5 -8 4 -15 -2 -18z"/>
<path d="M2475 3960 c3 -5 11 -10 16 -10 6 0 7 5 4 10 -3 6 -11 10 -16 10 -6
0 -7 -4 -4 -10z"/>
<path d="M2721 3954 c0 -11 3 -14 6 -6 3 7 2 16 -1 19 -3 4 -6 -2 -5 -13z"/>
<path d="M2475 3731 c-3 -5 -2 -12 3 -15 5 -3 9 1 9 9 0 17 -3 19 -12 6z"/>
<path d="M2721 3714 c0 -11 3 -14 6 -6 3 7 2 16 -1 19 -3 4 -6 -2 -5 -13z"/>
<path d="M1245 3540 c-3 -5 -1 -10 4 -10 6 0 11 5 11 10 0 6 -2 10 -4 10 -3 0
-8 -4 -11 -10z"/>
<path d="M1636 3443 c-6 -14 -5 -15 5 -6 7 7 10 15 7 18 -3 3 -9 -2 -12 -12z"/>
<path d="M1713 3163 c20 -2 54 -2 75 0 20 2 3 4 -38 4 -41 0 -58 -2 -37 -4z"/>
<path d="M1611 3081 c-7 -5 -17 -28 -22 -52 -7 -38 -5 -46 13 -62 12 -10 24
-14 27 -10 3 5 18 14 33 20 35 16 47 66 22 94 -18 20 -50 25 -73 10z m69 -35
c0 -18 -5 -23 -25 -23 -31 0 -33 17 -2 18 17 1 18 2 4 6 -20 5 -13 23 9 23 8
0 14 -10 14 -24z"/>
<path d="M1596 2847 c-14 -15 -26 -35 -26 -47 0 -29 44 -70 75 -70 14 0 37 11
50 25 45 44 25 98 -42 111 -26 5 -37 1 -57 -19z"/>
<path d="M2161 2834 c0 -11 3 -14 6 -6 3 7 2 16 -1 19 -3 4 -6 -2 -5 -13z"/>
<path d="M1931 2624 c0 -11 3 -14 6 -6 3 7 2 16 -1 19 -3 4 -6 -2 -5 -13z"/>
<path d="M1619 2623 c-7 -44 -6 -63 2 -63 5 0 9 -5 9 -11 0 -5 -4 -8 -9 -5 -5
3 -11 -1 -15 -9 -3 -10 3 -17 19 -21 42 -10 63 3 67 44 5 62 0 72 -38 72 -19
0 -35 -3 -35 -7z m46 -43 c3 -5 -3 -10 -15 -10 -12 0 -18 5 -15 10 3 6 10 10
15 10 5 0 12 -4 15 -10z"/>
<path d="M1640 2422 c0 -6 -9 -8 -19 -5 -29 7 -57 -40 -45 -75 11 -31 56 -56
84 -47 17 6 19 14 16 68 -2 48 -7 63 -19 65 -10 2 -17 -1 -17 -6z"/>
<path d="M1685 2390 c3 -5 10 -10 16 -10 5 0 9 5 9 10 0 6 -7 10 -16 10 -8 0
-12 -4 -9 -10z"/>
<path d="M2114 1776 c-20 -20 -34 -44 -34 -57 1 -22 2 -22 14 6 20 45 52 68
104 76 l47 6 -48 2 c-43 1 -53 -3 -83 -33z"/>
<path d="M2215 1580 l-30 -8 30 -1 c17 0 37 4 45 9 13 9 13 10 0 9 -8 -1 -28
-5 -45 -9z"/>
<path d="M1053 2313 c9 -2 25 -2 35 0 9 3 1 5 -18 5 -19 0 -27 -2 -17 -5z"/>
<path d="M1210 1879 c0 -5 5 -7 10 -4 6 3 10 8 10 11 0 2 -4 4 -10 4 -5 0 -10
-5 -10 -11z"/>
<path d="M1120 1810 c0 -5 5 -10 11 -10 5 0 7 5 4 10 -3 6 -8 10 -11 10 -2 0
-4 -4 -4 -10z"/>
<path d="M2110 716 c0 -2 7 -6 15 -10 8 -3 15 -1 15 4 0 6 -7 10 -15 10 -8 0
-15 -2 -15 -4z"/>
<path d="M1791 683 c0 -5 4 -17 9 -28 8 -18 9 -17 9 8 1 15 -3 27 -9 27 -5 0
-10 -3 -9 -7z"/>
<path d="M1800 616 c0 -15 27 -29 34 -18 3 5 -4 13 -15 20 -15 10 -19 10 -19
-2z"/>
</g>
</svg>
