<svg width="260" height="81" viewBox="0 0 260 81" fill="none" xmlns="http://www.w3.org/2000/svg">
<g clip-path="url(#clip0_1_319)">
<path d="M251.875 80.625H8.125C3.65625 80.625 0 76.9688 0 72.5V7.5C0 3.03125 3.65625 -0.625 8.125 -0.625H251.875C256.344 -0.625 260 3.03125 260 7.5V72.5C260 76.9688 256.344 80.625 251.875 80.625Z" fill="black"/>
<path d="M54.8438 39.5938C54.8438 33.2969 60.125 30.25 60.3281 30.0469C57.2813 25.7813 52.8125 25.1719 51.1875 24.9688C47.3281 24.5625 43.4688 27.2031 41.6406 27.2031C39.6094 27.2031 36.5625 24.9688 33.3125 24.9688C29.0469 24.9688 25.1875 27.4063 22.9531 31.2656C18.4844 38.9844 21.7344 50.3594 26 56.6563C28.2344 59.7031 30.6719 63.1563 33.9219 62.9531C37.1719 62.75 38.3906 60.9219 42.25 60.9219C46.1094 60.9219 47.125 62.9531 50.5781 62.9531C54.0313 62.9531 56.2656 59.9063 58.2969 56.8594C60.7344 53.4063 61.75 49.9531 61.75 49.75C61.5469 49.5469 54.8438 47.1094 54.8438 39.5938Z" fill="white"/>
<path d="M48.5469 20.9062C50.1719 18.6719 51.3906 15.8281 51.1875 12.7812C48.75 12.9844 45.5 14.4062 43.875 16.6406C42.25 18.4687 40.8281 21.5156 41.2344 24.3594C43.875 24.5625 46.7187 22.9375 48.5469 20.9062Z" fill="white"/>
<path d="M101.156 62.5469H96.6875L94.25 54.8281H85.7188L83.4844 62.5469H79.2188L87.75 36.3438H93.0313L101.156 62.5469ZM93.4375 51.5781L91.2031 44.6719C91 44.0625 90.5938 42.2344 89.7813 39.7969C89.5781 40.8125 89.1719 42.6406 88.5625 44.6719L86.3281 51.5781H93.4375Z" fill="white"/>
<path d="M122.891 53C122.891 56.25 122.078 58.6875 120.25 60.7188C118.625 62.3438 116.797 63.1563 114.359 63.1563C111.922 63.1563 110.094 62.3437 109.078 60.5156V70.4687H104.813V50.1562C104.813 48.125 104.812 46.0938 104.609 43.8594H108.266L108.469 46.9063C109.891 44.6719 111.922 43.4531 114.766 43.4531C117 43.4531 118.828 44.2656 120.25 46.0937C122.078 47.7187 122.891 49.9531 122.891 53ZM118.625 53C118.625 51.1719 118.219 49.5469 117.406 48.5312C116.594 47.3125 115.375 46.7031 113.75 46.7031C112.734 46.7031 111.719 47.1094 110.906 47.7187C110.094 48.3281 109.484 49.3437 109.281 50.3594C109.078 50.9687 109.078 51.375 109.078 51.5781V54.8281C109.078 56.25 109.484 57.2656 110.297 58.2812C111.109 59.2969 112.328 59.7031 113.547 59.7031C115.172 59.7031 116.391 59.0937 117.203 57.875C118.219 56.6562 118.625 55.0313 118.625 53Z" fill="white"/>
<path d="M144.625 53C144.625 56.25 143.813 58.6875 141.984 60.7188C140.359 62.3438 138.531 63.1563 136.094 63.1563C133.656 63.1563 131.828 62.3437 130.812 60.5156V70.4687H126.547V50.1562C126.547 48.125 126.547 46.0938 126.344 43.8594H130L130.203 46.9063C131.625 44.6719 133.656 43.4531 136.5 43.4531C138.734 43.4531 140.563 44.2656 141.984 46.0937C143.813 47.7187 144.625 49.9531 144.625 53ZM140.359 53C140.359 51.1719 139.953 49.5469 139.141 48.5312C138.328 47.3125 137.109 46.7031 135.484 46.7031C134.469 46.7031 133.453 47.1094 132.641 47.7187C131.828 48.3281 131.219 49.3437 131.016 50.3594C130.812 50.9687 130.812 51.375 130.812 51.5781V54.8281C130.812 56.25 131.219 57.2656 132.031 58.2812C132.844 59.2969 134.063 59.7031 135.281 59.7031C136.906 59.7031 138.125 59.0937 138.938 57.875C139.953 56.6562 140.359 55.0313 140.359 53Z" fill="white"/>
<path d="M169 55.2344C169 57.4687 168.188 59.2969 166.766 60.7187C165.141 62.3437 162.703 62.9531 159.656 62.9531C156.813 62.9531 154.578 62.3437 152.953 61.3281L153.969 57.875C155.797 58.8906 157.828 59.5 160.063 59.5C161.688 59.5 162.906 59.0937 163.719 58.4844C164.531 57.6719 164.938 56.8594 164.938 55.6406C164.938 54.625 164.531 53.6094 163.922 53C163.109 52.1875 161.891 51.5781 160.266 50.9688C155.594 49.3438 153.359 46.7031 153.359 43.4531C153.359 41.2188 154.172 39.5937 155.797 38.1719C157.422 36.75 159.453 36.1406 162.297 36.1406C164.734 36.1406 166.563 36.5469 168.188 37.3594L167.172 40.8125C165.75 40 164.125 39.5938 162.094 39.5938C160.672 39.5938 159.453 40 158.641 40.6094C158.031 41.2188 157.625 42.0313 157.625 43.0469C157.625 44.0625 158.031 44.875 158.844 45.6875C159.453 46.2969 160.875 46.9062 162.703 47.7187C164.938 48.5312 166.563 49.75 167.781 50.9688C168.391 51.9844 169 53.4062 169 55.2344Z" fill="white"/>
<path d="M182.813 46.9063H178.141V56.0469C178.141 58.2813 178.953 59.5 180.578 59.5C181.391 59.5 182 59.5 182.406 59.2969L182.609 62.5469C181.797 62.9531 180.781 62.9531 179.359 62.9531C177.734 62.9531 176.313 62.5469 175.5 61.5312C174.484 60.5156 174.078 58.8906 174.078 56.4531V46.9063H171.234V43.6562H174.078V40.2031L178.141 38.9844V43.6562H182.813V46.9063Z" fill="white"/>
<path d="M203.734 53C203.734 55.8437 202.922 58.2812 201.297 60.1094C199.469 61.9375 197.234 62.9531 194.391 62.9531C191.547 62.9531 189.313 61.9375 187.688 60.1094C186.063 58.2812 185.25 56.0469 185.25 53.2031C185.25 50.3594 186.063 47.9219 187.891 46.0938C189.516 44.2656 191.953 43.25 194.797 43.25C197.641 43.25 199.875 44.2656 201.5 46.0938C202.922 47.9219 203.734 50.1563 203.734 53ZM199.266 53.2031C199.266 51.375 198.859 49.9531 198.047 48.7344C197.234 47.3125 195.813 46.5 194.188 46.5C192.563 46.5 191.141 47.3125 190.328 48.7344C189.516 49.9531 189.109 51.5781 189.109 53.2031C189.109 55.0312 189.516 56.4531 190.328 57.6719C191.141 59.0937 192.563 59.9062 194.188 59.9062C195.813 59.9062 197.031 59.0937 198.047 57.6719C198.859 56.4531 199.266 54.8281 199.266 53.2031Z" fill="white"/>
<path d="M217.344 47.3125C216.937 47.3125 216.531 47.1094 215.922 47.1094C214.5 47.1094 213.281 47.7187 212.469 48.7344C211.859 49.75 211.453 50.9687 211.453 52.3906V62.3438H207.187V49.3437C207.187 47.1094 207.188 45.2813 206.984 43.4531H210.641L210.844 47.1094H211.047C211.453 45.8906 212.266 44.875 213.078 44.0625C214.094 43.4531 215.109 43.0469 216.125 43.0469C216.531 43.0469 216.938 43.0469 217.141 43.0469V47.3125H217.344Z" fill="white"/>
<path d="M236.031 52.1875C236.031 53 236.031 53.6094 235.828 54.0156H223.234C223.234 55.8437 223.844 57.2656 225.062 58.2812C226.078 59.0937 227.5 59.7031 229.125 59.7031C230.953 59.7031 232.781 59.5 234.203 58.8906L234.813 61.7344C232.984 62.5469 230.953 62.9531 228.516 62.9531C225.672 62.9531 223.234 62.1406 221.609 60.3125C219.984 58.6875 219.172 56.25 219.172 53.4062C219.172 50.5625 219.984 48.125 221.406 46.2969C223.031 44.2656 225.266 43.25 228.109 43.25C230.75 43.25 232.984 44.2656 234.203 46.2969C235.625 47.9219 236.031 49.9531 236.031 52.1875ZM232.172 51.1719C232.172 49.9531 231.969 48.9375 231.359 47.9219C230.547 46.7031 229.531 46.0938 228.109 46.0938C226.687 46.0938 225.672 46.7031 224.859 47.7187C224.25 48.5312 223.844 49.75 223.641 50.9688H232.172V51.1719Z" fill="white"/>
<path d="M92.2188 20.2969C92.2188 22.5312 91.6094 24.3594 90.1875 25.5781C88.9687 26.5937 87.1406 27.2031 84.7031 27.2031C83.4844 27.2031 82.4688 27.2031 81.6562 27V14.4063C82.6719 14.2031 83.8906 14.2031 85.3125 14.2031C87.5469 14.2031 89.1719 14.6094 90.3906 15.625C91.4062 16.6406 92.2188 18.2656 92.2188 20.2969ZM89.9844 20.2969C89.9844 18.875 89.5781 17.6563 88.7656 16.8438C87.9531 16.0313 86.7344 15.625 85.3125 15.625C84.7031 15.625 84.0938 15.625 83.6875 15.8281V25.375C83.8906 25.375 84.5 25.375 85.1094 25.375C86.7344 25.375 87.9531 24.9688 88.7656 24.1563C89.5781 23.3438 89.9844 21.9219 89.9844 20.2969Z" fill="white"/>
<path d="M103.594 22.3281C103.594 23.75 103.188 24.9687 102.375 25.7812C101.563 26.7969 100.344 27.2031 98.9219 27.2031C97.5 27.2031 96.4844 26.7969 95.6719 25.7812C94.8594 24.9687 94.4531 23.75 94.4531 22.3281C94.4531 20.9062 94.8594 19.6875 95.6719 18.875C96.4844 17.8594 97.7031 17.4531 99.125 17.4531C100.547 17.4531 101.563 17.8594 102.375 18.875C103.188 19.6875 103.594 20.9062 103.594 22.3281ZM101.562 22.3281C101.562 21.5156 101.359 20.7031 100.953 20.0938C100.547 19.2813 99.9375 19.0781 99.125 19.0781C98.3125 19.0781 97.7031 19.4844 97.2969 20.0938C96.8906 20.7031 96.6875 21.5156 96.6875 22.3281C96.6875 23.1406 96.8906 23.9531 97.2969 24.5625C97.7031 25.375 98.3125 25.5781 99.125 25.5781C99.9375 25.5781 100.547 25.1719 100.953 24.3594C101.359 23.9531 101.562 23.1406 101.562 22.3281Z" fill="white"/>
<path d="M119.234 17.6562L116.391 27H114.563L113.344 22.9375C112.938 21.9219 112.734 20.9063 112.531 19.8906C112.328 20.9063 112.125 21.9219 111.719 22.9375L110.5 27H108.672L105.625 17.6562H107.656L108.672 22.125C108.875 23.1406 109.078 24.1563 109.281 25.1719C109.484 24.3594 109.688 23.3438 110.094 22.125L111.313 17.6562H112.938L114.156 21.9219C114.563 22.9375 114.766 23.9531 114.969 24.9688C115.172 23.9531 115.375 22.9375 115.578 21.9219L116.797 17.6562H119.234Z" fill="white"/>
<path d="M129.797 27H127.766V21.7188C127.766 20.0938 127.156 19.2813 125.938 19.2813C125.328 19.2813 124.922 19.4844 124.516 19.8906C124.109 20.2969 123.906 20.9063 123.906 21.5156V27H121.875V20.2969C121.875 19.4844 121.875 18.6719 121.875 17.6563H123.703V19.0781C123.906 18.6719 124.313 18.2656 124.719 17.8594C125.328 17.4531 125.938 17.25 126.547 17.25C127.359 17.25 128.172 17.4531 128.781 18.0625C129.594 18.6719 129.797 19.6875 129.797 21.1094V27Z" fill="white"/>
<path d="M135.484 27H133.453V13.3906H135.484V27Z" fill="white"/>
<path d="M147.672 22.3281C147.672 23.75 147.266 24.9687 146.453 25.7812C145.641 26.7969 144.422 27.2031 143 27.2031C141.578 27.2031 140.562 26.7969 139.75 25.7812C138.937 24.9687 138.531 23.75 138.531 22.3281C138.531 20.9062 138.937 19.6875 139.75 18.875C140.562 18.0625 141.781 17.4531 143.203 17.4531C144.625 17.4531 145.641 17.8594 146.453 18.875C147.266 19.6875 147.672 20.9062 147.672 22.3281ZM145.641 22.3281C145.641 21.5156 145.437 20.7031 145.031 20.0938C144.625 19.2813 144.016 19.0781 143.203 19.0781C142.391 19.0781 141.781 19.4844 141.375 20.0938C140.969 20.7031 140.766 21.5156 140.766 22.3281C140.766 23.1406 140.969 23.9531 141.375 24.5625C141.781 25.375 142.391 25.5781 143.203 25.5781C144.016 25.5781 144.625 25.1719 145.031 24.3594C145.437 23.9531 145.641 23.1406 145.641 22.3281Z" fill="white"/>
<path d="M157.625 27H155.797L155.594 25.9844C154.984 26.7969 153.969 27.2031 152.953 27.2031C152.141 27.2031 151.328 27 150.922 26.3906C150.516 25.7812 150.109 25.1719 150.109 24.5625C150.109 23.3437 150.516 22.5313 151.531 21.9219C152.547 21.3125 153.766 21.1094 155.594 21.1094V20.9063C155.594 19.6875 154.984 19.0781 153.766 19.0781C152.75 19.0781 152.141 19.2813 151.328 19.6875L150.922 18.2656C151.734 17.6562 152.75 17.4531 154.172 17.4531C156.609 17.4531 157.828 18.6719 157.828 21.3125V24.7656C157.625 25.7812 157.625 26.3906 157.625 27ZM155.594 23.75V22.3281C153.359 22.3281 152.141 22.9375 152.141 24.1563C152.141 24.5625 152.344 24.9688 152.547 25.1719C152.75 25.375 153.156 25.5781 153.563 25.5781C153.969 25.5781 154.375 25.375 154.781 25.1719C155.188 24.9688 155.391 24.5625 155.594 24.1563C155.594 24.1563 155.594 23.9531 155.594 23.75Z" fill="white"/>
<path d="M169.406 27H167.578V25.5781C166.969 26.7969 165.953 27.2031 164.531 27.2031C163.312 27.2031 162.5 26.7969 161.687 25.9844C160.875 25.1719 160.672 23.9531 160.672 22.5312C160.672 21.1094 161.078 19.8906 161.891 18.875C162.703 18.0625 163.719 17.6562 164.734 17.6562C165.953 17.6562 166.766 18.0625 167.375 18.875V13.5938H169.406V24.5625C169.406 25.375 169.406 26.1875 169.406 27ZM167.375 23.1406V21.5156C167.375 21.3125 167.375 21.1094 167.375 20.9062C167.172 20.5 166.969 20.0937 166.562 19.6875C166.156 19.2812 165.75 19.2812 165.141 19.2812C164.328 19.2812 163.719 19.6875 163.312 20.2969C162.906 20.9062 162.703 21.7187 162.703 22.7344C162.703 23.75 162.906 24.3594 163.312 24.9687C163.719 25.5781 164.328 25.9844 165.141 25.9844C165.75 25.9844 166.359 25.7812 166.766 25.1719C167.172 24.3594 167.375 23.75 167.375 23.1406Z" fill="white"/>
<path d="M187.078 22.3281C187.078 23.75 186.672 24.9687 185.859 25.7812C185.047 26.7969 183.828 27.2031 182.406 27.2031C180.984 27.2031 179.969 26.7969 179.156 25.7812C178.344 24.9687 177.938 23.75 177.938 22.3281C177.938 20.9062 178.344 19.6875 179.156 18.875C179.969 17.8594 181.188 17.4531 182.609 17.4531C184.031 17.4531 185.047 17.8594 185.859 18.875C186.672 19.6875 187.078 20.9062 187.078 22.3281ZM184.844 22.3281C184.844 21.5156 184.641 20.7031 184.234 20.0938C183.828 19.2813 183.219 19.0781 182.406 19.0781C181.594 19.0781 180.984 19.4844 180.578 20.0938C180.172 20.7031 179.969 21.5156 179.969 22.3281C179.969 23.1406 180.172 23.9531 180.578 24.5625C180.984 25.375 181.594 25.5781 182.406 25.5781C183.219 25.5781 183.828 25.1719 184.234 24.3594C184.641 23.9531 184.844 23.1406 184.844 22.3281Z" fill="white"/>
<path d="M198.25 27H196.219V21.7188C196.219 20.0938 195.609 19.2813 194.391 19.2813C193.781 19.2813 193.375 19.4844 192.969 19.8906C192.563 20.2969 192.359 20.9063 192.359 21.5156V27H190.328V20.2969C190.328 19.4844 190.328 18.6719 190.328 17.6563H192.156V19.0781C192.359 18.6719 192.766 18.2656 193.172 17.8594C193.781 17.4531 194.391 17.25 195 17.25C195.813 17.25 196.625 17.4531 197.234 18.0625C198.047 18.6719 198.25 19.6875 198.25 21.1094V27Z" fill="white"/>
<path d="M212.063 19.2812H209.828V23.75C209.828 24.9687 210.234 25.375 211.047 25.375C211.453 25.375 211.656 25.375 212.063 25.375V27C211.656 27.2031 211.047 27.2031 210.438 27.2031C209.625 27.2031 209.016 27 208.609 26.3906C208.203 25.9844 208 24.9687 208 23.9531V19.2812H206.578V17.6563H208V16.0313L210.031 15.4219V17.6563H212.266V19.2812H212.063Z" fill="white"/>
<path d="M223.031 27H221V21.7188C221 20.0938 220.391 19.2812 219.172 19.2812C218.156 19.2812 217.547 19.6875 217.141 20.7031C217.141 20.9063 217.141 21.1094 217.141 21.5156V27H215.109V13.3906H217.141V19.0781C217.75 18.0625 218.766 17.4531 219.984 17.4531C220.797 17.4531 221.609 17.6562 222.016 18.2656C222.625 18.875 223.031 20.0938 223.031 21.3125V27Z" fill="white"/>
<path d="M234.203 21.9219C234.203 22.3281 234.203 22.5312 234.203 22.9375H228.109C228.109 23.9531 228.516 24.5625 228.922 24.9688C229.531 25.375 230.141 25.5781 230.953 25.5781C231.969 25.5781 232.781 25.375 233.391 25.1719L233.797 26.5938C232.984 27 231.969 27.2031 230.75 27.2031C229.328 27.2031 228.109 26.7969 227.297 25.9844C226.484 25.1719 226.078 23.9531 226.078 22.5312C226.078 21.1094 226.484 19.8906 227.297 19.0781C228.109 18.0625 229.125 17.6562 230.547 17.6562C231.969 17.6562 232.984 18.0625 233.594 19.0781C234 19.6875 234.203 20.7031 234.203 21.9219ZM232.375 21.3125C232.375 20.7031 232.172 20.0937 231.969 19.6875C231.562 19.0781 231.156 18.875 230.344 18.875C229.734 18.875 229.125 19.0781 228.719 19.6875C228.313 20.0937 228.109 20.7031 228.109 21.3125H232.375Z" fill="white"/>
</g>
<defs>
<clipPath id="clip0_1_319">
<rect width="260" height="81" fill="white"/>
</clipPath>
</defs>
</svg>
