<svg width="35" height="40" viewBox="0 0 35 40" fill="none" xmlns="http://www.w3.org/2000/svg">
<path d="M35.8548 -0.963623L35.854 16.7363L30.8911 16.6989L30.8405 16.6986C29.6669 16.6986 28.5148 17.0162 27.5058 17.6185L26.2946 18.342L25.0324 16.92C24.9307 16.8061 24.817 16.7025 24.6934 16.6119C24.2262 16.2691 23.6538 16.1291 23.0815 16.2173C22.5091 16.3054 22.0051 16.6112 21.6625 17.0783L20.8708 18.1577L19.8025 14.257C19.615 13.5716 19.0686 13.0464 18.3752 12.8866C17.8736 12.772 17.357 12.8582 16.9205 13.1317C16.4839 13.4049 16.1803 13.8318 16.0649 14.3334L15.1015 18.5237L14.5083 15.8624C14.3375 15.0979 13.7655 14.483 13.016 14.2583C12.4606 14.0913 11.8744 14.1506 11.3646 14.4252C10.8546 14.6996 10.4819 15.156 10.3151 15.7108L9.60825 18.064L9.13916 16.6451C8.8445 15.7554 8.01738 15.1579 7.08041 15.1579H5.78227C5.11707 15.1579 4.57762 15.6971 4.57762 16.3625C4.57762 17.028 5.11707 17.5672 5.78227 17.5672H6.90621L8.28 21.7213C8.53057 22.4771 9.34997 22.8896 10.107 22.639C10.5539 22.4911 10.9016 22.1331 11.0367 21.6825L12.3573 17.287L13.6759 23.2018C13.76 23.5786 13.9855 23.9003 14.3117 24.1075C14.5461 24.2566 14.8126 24.3332 15.0841 24.3332C15.1896 24.3332 15.2964 24.3217 15.4019 24.2981C15.9411 24.1776 16.3704 23.7519 16.4957 23.2112L17.9842 16.7386L18.8108 19.756C18.9465 20.2526 19.2679 20.6665 19.715 20.9217C20.1622 21.1763 20.6819 21.2416 21.1784 21.1062C21.5962 20.992 21.9675 20.7364 22.2238 20.387L23.429 18.7436L24.4929 19.9418C25.2608 20.8055 26.5372 21.0026 27.5296 20.4104L28.7408 19.6871C29.385 19.3024 30.11 19.1029 30.8725 19.1082L35.854 19.1456L35.8548 40.9455H-1.20465V-0.963623H35.8548Z" fill="#D2D9D6"/>
</svg>
