<svg width="111" height="41" viewBox="0 0 111 41" fill="none" xmlns="http://www.w3.org/2000/svg">
<path d="M58.9115 16.4188C58.8833 15.6659 58.7508 15.0041 58.5142 14.4323C58.2769 13.8613 57.9632 13.3869 57.5731 13.0106C57.1826 12.634 56.7369 12.3557 56.235 12.1741C55.7331 11.9931 55.2171 11.9023 54.6878 11.9023C53.6004 11.9023 52.6594 12.2994 51.8648 13.094C51.0702 13.8885 50.6168 14.9968 50.5057 16.4188H58.9115ZM50.3385 19.8477C50.4221 21.4097 50.875 22.65 51.6976 23.5701C52.5196 24.49 53.6004 24.9499 54.9386 24.9499C55.8305 24.9499 56.6178 24.748 57.3014 24.3437C57.9842 23.9399 58.4234 23.3752 58.6188 22.65H64.2226C63.581 24.769 62.4662 26.4001 60.877 27.5428C59.2878 28.6862 57.3915 29.2575 55.1896 29.2575C48.3311 29.2575 44.9019 25.5216 44.9019 18.0499C44.9019 16.4607 45.1245 15.025 45.571 13.7423C46.0167 12.4601 46.6648 11.3585 47.5155 10.4384C48.3657 9.51831 49.4039 8.81456 50.6312 8.32643C51.8575 7.83903 53.2658 7.59473 54.855 7.59473C58.0333 7.59473 60.4378 8.6129 62.0689 10.6476C63.7 12.6829 64.5153 15.7497 64.5153 19.8477H50.3385Z" fill="#00070F"/>
<path d="M78.9008 18.6354C78.6218 18.9144 78.2176 19.1372 77.6882 19.3044C77.1584 19.4719 76.3918 19.6535 75.3881 19.848C73.8264 20.1554 72.7535 20.5455 72.1681 21.0194C71.5826 21.4935 71.2899 22.1763 71.2899 23.068C71.2899 24.602 72.168 25.3682 73.9244 25.3682C74.621 25.3682 75.2691 25.2501 75.869 25.013C76.4679 24.7762 76.9838 24.4555 77.4162 24.0512C77.8482 23.6474 78.1964 23.1728 78.4619 22.629C78.7264 22.0855 78.8589 21.5072 78.8589 20.8936L78.9008 18.6354ZM79.2772 28.714C79.11 28.1846 78.9982 27.571 78.9428 26.874C78.3012 27.5992 77.4509 28.1774 76.3918 28.6094C75.3319 29.0411 74.1054 29.2577 72.7116 29.2577C70.3418 29.2577 68.6061 28.7349 67.5051 27.6895C66.4033 26.6439 65.8533 25.2848 65.8533 23.612C65.8533 22.1344 66.0899 20.9562 66.5643 20.078C67.0379 19.2001 67.6933 18.5098 68.5298 18.008C69.366 17.5061 70.3628 17.137 71.5199 16.8999C72.6764 16.6631 73.9382 16.447 75.3042 16.2514C76.6701 16.0569 77.5902 15.7989 78.0646 15.478C78.5382 15.1578 78.7753 14.635 78.7753 13.9098C78.7753 13.2404 78.4619 12.7179 77.8345 12.3415C77.2073 11.965 76.3636 11.7768 75.3042 11.7768C74.0497 11.7768 73.1506 12.0558 72.607 12.6133C72.0637 13.1713 71.7218 13.9098 71.5826 14.8299H66.5223C66.5498 13.7707 66.7242 12.795 67.0451 11.9026C67.3653 11.0104 67.8814 10.244 68.5924 9.6024C69.3034 8.96129 70.23 8.46666 71.3732 8.11779C72.5162 7.7694 73.91 7.59497 75.5553 7.59497C77.1719 7.59497 78.5455 7.77663 79.6745 8.13851C80.8037 8.50135 81.7094 9.02393 82.3929 9.70672C83.0757 10.3902 83.5703 11.2405 83.8775 12.2577C84.184 13.2759 84.3374 14.4258 84.3374 15.7081V28.714H79.2772Z" fill="#00070F"/>
<path d="M97.9298 7.59521C97.3709 7.59521 96.8264 7.62413 96.2988 7.67954C95.7687 7.73495 95.2459 7.86747 94.7303 8.07467C94.2123 8.28428 93.7112 8.58544 93.2245 8.97575C92.7354 9.36605 92.268 9.90815 91.8223 10.6068V8.13731H86.7218V28.7127H92.1572V18.0082C92.1572 14.6906 93.8172 13.0308 97.1348 13.0308C97.4094 13.0308 97.6817 13.0426 97.9564 13.0692V7.59521H97.9298Z" fill="#00070F"/>
<path d="M110.35 2.63232V28.713H104.912V13.1537H100.339V7.40732C101.059 7.36636 101.691 7.27987 102.235 7.14977C103.045 6.95437 103.708 6.65321 104.223 6.24869C104.738 5.84633 105.129 5.34279 105.394 4.74287C105.659 4.14512 105.832 3.44161 105.917 2.63232H110.35Z" fill="#00070F"/>
<mask id="mask0_1_345" style="mask-type:alpha" maskUnits="userSpaceOnUse" x="0" y="0" width="35" height="40">
<path d="M15.7809 0.280961C15.2449 0.313969 14.7117 0.395162 14.1905 0.527433C13.7147 0.648139 13.2435 0.788842 12.7691 0.916294C8.35064 2.06168 4.97641 4.6124 2.58036 8.5003C0.416085 12.0111 -0.318993 15.8161 0.122873 19.8746C0.506675 23.3992 2.092 26.3889 4.34734 29.0521C6.35309 31.4207 8.71685 33.3814 11.3085 35.0841C13.9968 36.8501 16.8596 38.2318 19.9295 39.1888C20.6875 39.4249 21.4662 39.568 22.2439 39.7162C22.4101 39.7477 22.5911 39.7781 22.7057 39.6082C22.7999 39.469 22.7628 39.3252 22.7002 39.1926C22.633 39.0507 22.5385 38.9233 22.4381 38.8021C21.9225 38.1807 21.5459 37.4799 21.2288 36.7421C20.8554 35.8726 20.9894 34.9137 22.2212 34.5938C25.434 33.7589 28.0961 31.9871 30.2736 29.5097C33.4071 25.9441 34.8715 21.7495 34.6234 17.0218C34.3603 12.0121 32.3263 7.79148 28.5302 4.49146C25.216 1.61065 21.3645 0.240967 17.0685 0.240967C16.6435 0.240967 16.2146 0.254459 15.7809 0.280961Z" fill="white"/>
</mask>
<g mask="url(#mask0_1_345)">
<path d="M35.8548 -0.963623L35.854 16.7363L30.8911 16.6989L30.8405 16.6986C29.6669 16.6986 28.5148 17.0162 27.5058 17.6185L26.2946 18.342L25.0324 16.92C24.9307 16.8061 24.817 16.7025 24.6934 16.6119C24.2262 16.2691 23.6538 16.1291 23.0815 16.2173C22.5091 16.3054 22.0051 16.6112 21.6625 17.0783L20.8708 18.1577L19.8025 14.257C19.615 13.5716 19.0686 13.0464 18.3752 12.8866C17.8736 12.772 17.357 12.8582 16.9205 13.1317C16.4839 13.4049 16.1803 13.8318 16.0649 14.3334L15.1015 18.5237L14.5083 15.8624C14.3375 15.0979 13.7655 14.483 13.016 14.2583C12.4606 14.0913 11.8744 14.1506 11.3646 14.4252C10.8546 14.6996 10.4819 15.156 10.3151 15.7108L9.60825 18.064L9.13916 16.6451C8.8445 15.7554 8.01738 15.1579 7.08041 15.1579H5.78227C5.11707 15.1579 4.57762 15.6971 4.57762 16.3625C4.57762 17.028 5.11707 17.5672 5.78227 17.5672H6.90621L8.28 21.7213C8.53057 22.4771 9.34997 22.8896 10.107 22.639C10.5539 22.4911 10.9016 22.1331 11.0367 21.6825L12.3573 17.287L13.6759 23.2018C13.76 23.5786 13.9855 23.9003 14.3117 24.1075C14.5461 24.2566 14.8126 24.3332 15.0841 24.3332C15.1896 24.3332 15.2964 24.3217 15.4019 24.2981C15.9411 24.1776 16.3704 23.7519 16.4957 23.2112L17.9842 16.7386L18.8108 19.756C18.9465 20.2526 19.2679 20.6665 19.715 20.9217C20.1622 21.1763 20.6819 21.2416 21.1784 21.1062C21.5962 20.992 21.9675 20.7364 22.2238 20.387L23.429 18.7436L24.4929 19.9418C25.2608 20.8055 26.5372 21.0026 27.5296 20.4104L28.7408 19.6871C29.385 19.3024 30.11 19.1029 30.8725 19.1082L35.854 19.1456L35.8548 40.9455H-1.20465V-0.963623H35.8548Z" fill="#D2D9D6"/>
</g>
</svg>
