<svg width="260" height="82" viewBox="0 0 260 82" fill="none" xmlns="http://www.w3.org/2000/svg">
<g clip-path="url(#clip0_1_287)">
<path d="M251.875 81.625H8.125C3.65625 81.625 0 77.9688 0 73.5V8.5C0 4.03125 3.65625 0.375 8.125 0.375H251.875C256.344 0.375 260 4.03125 260 8.5V73.5C260 77.9688 256.344 81.625 251.875 81.625Z" fill="black"/>
<path fill-rule="evenodd" clip-rule="evenodd" d="M19.9062 40.1875V18.8594C19.9062 17.6406 20.9219 16.625 21.9375 16.625C22.9531 16.625 23.3594 16.8281 23.9687 17.2344L63.1719 38.7656C63.9844 39.1719 64.3906 39.7812 64.3906 40.3906C64.3906 41 63.9844 41.6094 63.1719 42.0156L23.9687 63.5469C23.5625 63.75 22.9531 64.1562 21.9375 64.1562C20.9219 64.1562 19.9062 63.1406 19.9062 61.9219V40.1875Z" fill="url(#paint0_linear_1_287)"/>
<path fill-rule="evenodd" clip-rule="evenodd" d="M45.2969 40.3906L21.5312 16.625C21.7344 16.625 21.7344 16.625 21.9375 16.625C22.9531 16.625 23.3594 16.8281 23.9687 17.2344L52.8125 33.0781L45.2969 40.3906Z" fill="url(#paint1_linear_1_287)"/>
<path fill-rule="evenodd" clip-rule="evenodd" d="M52.6094 47.5L45.2969 40.1875L52.8125 32.6719L63.1719 38.3594C63.9844 38.7656 64.3906 39.375 64.3906 39.9844C64.3906 40.5938 63.9844 41.2031 63.1719 41.6094L52.6094 47.5Z" fill="url(#paint2_linear_1_287)"/>
<path fill-rule="evenodd" clip-rule="evenodd" d="M21.7344 63.75L45.2969 40.1875L52.6094 47.5L23.9688 63.1406C23.3594 63.5469 22.9531 63.75 21.7344 63.75C21.9375 63.75 21.9375 63.75 21.7344 63.75Z" fill="url(#paint3_linear_1_287)"/>
<path fill-rule="evenodd" clip-rule="evenodd" d="M144.422 69.2344C143.406 68.4219 142.594 67 142.187 66.1875L145.438 64.7656C145.641 65.1719 146.047 65.7812 146.453 66.3906C147.266 67.2031 148.484 68.0156 149.703 68.0156C150.922 68.0156 152.344 67.4062 153.156 66.3906C153.766 65.375 154.172 64.3594 154.172 62.9375V61.7187C151.734 64.7656 146.656 64.3594 143.812 61.1094C140.766 57.8594 140.766 52.375 143.812 49.125C146.859 46.0781 151.328 45.6719 153.969 48.5156V47.0937H157.422V62.3281C157.422 66.1875 156 68.4219 154.172 69.8437C152.953 70.8594 151.125 71.2656 149.5 71.2656C147.672 71.0625 145.844 70.4531 144.422 69.2344ZM229.531 70.0469L232.984 61.9219L226.891 47.9063H230.344L234.609 57.8594L238.875 47.9063H242.328L232.984 70.0469H229.531ZM213.078 62.3281C212.062 61.3125 211.656 59.8906 211.656 58.4687C211.656 57.25 212.062 56.0312 212.875 55.2187C214.297 53.7969 216.328 53.1875 218.562 53.1875C219.984 53.1875 221.203 53.3906 222.219 54C222.219 51.5625 220.187 50.5469 218.562 50.5469C217.141 50.5469 215.719 51.3594 215.109 52.7812L212.062 51.5625C212.672 50.1406 214.297 47.5 218.359 47.5C220.391 47.5 222.422 48.1094 223.641 49.5312C224.859 50.9531 225.266 52.5781 225.266 54.8125V63.3437H221.812V61.9219C221.406 62.5312 220.594 62.9375 219.984 63.3437C219.172 63.75 218.156 63.9531 217.141 63.9531C215.922 63.75 214.094 63.3437 213.078 62.3281ZM104.813 55.0156C104.813 50.9531 107.859 46.4844 113.344 46.4844C118.625 46.4844 121.875 50.9531 121.875 55.0156C121.875 59.0781 118.828 63.5469 113.344 63.5469C107.859 63.5469 104.813 59.0781 104.813 55.0156ZM123.094 55.0156C123.094 50.9531 126.141 46.4844 131.625 46.4844C136.906 46.4844 140.156 50.9531 140.156 55.0156C140.156 59.0781 137.109 63.5469 131.625 63.5469C126.344 63.5469 123.094 59.0781 123.094 55.0156ZM81.8594 59.4844C76.7813 54.4062 76.9844 46.0781 82.0625 40.7969C84.7031 38.1563 87.9531 36.9375 91.4062 36.9375C94.6562 36.9375 97.9062 38.1562 100.344 40.5937L97.9062 43.2344C94.25 39.5781 88.3594 39.7813 84.9063 43.4375C81.25 47.2969 81.25 53.1875 84.9063 57.0469C88.5625 60.9062 94.6562 61.1094 98.3125 57.25C99.5312 56.0312 99.9375 54.4062 100.141 52.7812H91.6094V49.125H103.594C103.797 49.9375 103.797 50.9531 103.797 51.9688C103.797 55.0156 102.578 58.0625 100.547 60.0938C98.3125 62.3281 95.0625 63.5469 91.8125 63.5469C88.1562 63.3437 84.5 62.125 81.8594 59.4844ZM167.781 60.9062C164.734 57.6562 164.734 52.1719 167.781 48.7187C170.828 45.4687 175.906 45.4687 178.75 48.7187C179.766 49.7344 180.375 51.1562 180.984 52.5781L169.812 57.25C170.422 58.6719 171.844 59.8906 173.875 59.8906C175.703 59.8906 176.922 59.2812 178.141 57.4531L181.188 59.4844C180.781 59.8906 180.375 60.2969 180.172 60.7031C176.719 64.1562 170.828 64.1562 167.781 60.9062ZM188.906 63.3437V40.7969H196.219C200.484 40.7969 203.937 43.8438 203.937 47.5C203.937 51.1562 200.891 54.2031 197.031 54.2031H192.562V63.1406H188.906V63.3437ZM205.969 63.3437V40.7969H209.422V63.3437H205.969ZM160.062 62.9375V37.75H163.719V62.9375H160.062ZM222.016 56.6406C221.203 56.0312 219.984 55.8281 218.766 55.8281C216.328 55.8281 214.906 57.0469 214.906 58.4687C214.906 59.8906 216.328 60.7031 217.75 60.7031C219.781 60.7031 222.016 59.0781 222.016 56.6406ZM118.016 55.0156C118.016 52.5781 116.391 49.9375 113.344 49.9375C110.297 49.9375 108.672 52.5781 108.672 55.0156C108.672 57.4531 110.297 60.0938 113.344 60.0938C116.187 60.0938 118.016 57.4531 118.016 55.0156ZM136.297 55.0156C136.297 52.5781 134.672 49.9375 131.625 49.9375C128.578 49.9375 126.953 52.5781 126.953 55.0156C126.953 57.4531 128.578 60.0938 131.625 60.0938C134.672 60.0938 136.297 57.4531 136.297 55.0156ZM154.375 56.4375C154.375 56.2344 154.375 56.0312 154.578 55.8281C154.578 55.625 154.578 55.2188 154.578 55.0156C154.578 54.8125 154.578 54.4062 154.578 54.2031V54C154.578 53.7969 154.375 53.3906 154.375 53.1875C153.766 51.1562 151.937 49.7344 150.109 49.7344C147.672 49.7344 145.641 52.1719 145.641 54.8125C145.641 57.6562 147.672 59.8906 150.312 59.8906C151.937 60.0937 153.562 58.6719 154.375 56.4375ZM169.203 54.6094L176.719 51.3594C175.906 49.9375 174.687 49.5312 173.672 49.5312C170.625 49.7344 168.797 52.9844 169.203 54.6094ZM200.281 47.7031C200.281 45.6719 198.656 44.25 196.422 44.25H192.359V51.3594H196.625C198.656 51.3594 200.281 49.7344 200.281 47.7031Z" fill="white"/>
<path fill-rule="evenodd" clip-rule="evenodd" d="M232.171 65.9836H231.969V65.7812H232.171H231.969V65.9836H232.171Z" fill="white"/>
<path fill-rule="evenodd" clip-rule="evenodd" d="M232.578 65.9836C232.578 65.7812 232.578 65.7812 232.578 65.9836C232.375 65.7812 232.375 65.7812 232.578 65.9836C232.375 65.9836 232.375 65.9836 232.578 65.9836ZM232.578 65.7812C232.578 65.9836 232.578 65.9836 232.578 65.7812C232.578 65.9836 232.375 65.9836 232.578 65.7812C232.375 65.7812 232.578 65.7812 232.578 65.7812Z" fill="white"/>
<path fill-rule="evenodd" clip-rule="evenodd" d="M232.78 65.7812H232.578H232.78V65.9836V65.7812Z" fill="white"/>
<path d="M79.0156 20.8906C79.0156 17.2344 81.6563 15 84.9063 15C87.1406 15 88.5625 16.0156 89.5782 17.4375L87.9531 18.4531C87.3438 17.6406 86.3281 17.0313 84.9063 17.0313C82.6719 17.0313 81.0469 18.6563 81.0469 21.0938C81.0469 23.5313 82.6719 25.1563 84.9063 25.1563C86.125 25.1563 87.1407 24.5469 87.5469 24.1406V22.3125H84.2969V20.4844H89.7813V24.75C88.7656 25.9688 87.1406 26.7813 85.1094 26.7813C81.6563 26.7813 79.0156 24.3438 79.0156 20.8906Z" fill="white"/>
<path d="M92.2188 26.5781V15.2031H99.9375V17.0313H94.0469V19.875H99.7344V21.7031H94.0469V24.9531H99.9375V26.7812L92.2188 26.5781Z" fill="white"/>
<path d="M105.625 26.5781V17.0313H102.172V15.2031H111.109V17.0313H107.656V26.5781H105.625Z" fill="white"/>
<path d="M118.016 26.5781V15.2031H120.047V26.5781H118.016Z" fill="white"/>
<path d="M125.531 26.5781V17.0313H122.078V15.2031H131.016V17.0313H127.562V26.5781H125.531Z" fill="white"/>
<path d="M137.516 20.8906C137.516 17.4375 139.953 15 143.406 15C146.859 15 149.297 17.4375 149.297 20.8906C149.297 24.3438 146.859 26.7813 143.406 26.7813C139.953 26.7813 137.516 24.1406 137.516 20.8906ZM147.062 20.8906C147.062 18.4531 145.641 16.8281 143.203 16.8281C140.969 16.8281 139.344 18.6563 139.344 20.8906C139.344 23.3281 140.766 24.9531 143.203 24.9531C145.641 24.9531 147.062 23.125 147.062 20.8906Z" fill="white"/>
<path d="M159.453 26.5781L153.562 18.4531V26.5781H151.531V15.2031H153.562L159.453 23.125V15.2031H161.484V26.5781H159.453Z" fill="white"/>
</g>
<defs>
<linearGradient id="paint0_linear_1_287" x1="33.0432" y1="13.7276" x2="44.4145" y2="60.4279" gradientUnits="userSpaceOnUse">
<stop stop-color="#006884"/>
<stop offset="1" stop-color="#8AD1D0"/>
</linearGradient>
<linearGradient id="paint1_linear_1_287" x1="19.1764" y1="20.3702" x2="50.1652" y2="37.1229" gradientUnits="userSpaceOnUse">
<stop stop-color="#24BBB6"/>
<stop offset="1" stop-color="#DBE692"/>
</linearGradient>
<linearGradient id="paint2_linear_1_287" x1="54.8324" y1="48.3533" x2="54.8324" y2="32.2081" gradientUnits="userSpaceOnUse">
<stop stop-color="#FCC072"/>
<stop offset="1" stop-color="#F58A5B"/>
</linearGradient>
<linearGradient id="paint3_linear_1_287" x1="25.1767" y1="67.9529" x2="49.6568" y2="43.0392" gradientUnits="userSpaceOnUse">
<stop stop-color="#712B8F"/>
<stop offset="1" stop-color="#EA1D27"/>
</linearGradient>
<clipPath id="clip0_1_287">
<rect width="260" height="82" fill="white"/>
</clipPath>
</defs>
</svg>
